solid outlet
facet normal 0.998255 0.0351468 0.0474581
outer loop
vertex -0.00502161 -0.00404917 0.0529137
vertex -0.00555315 0.0120148 0.0521976
vertex -0.00558975 0.0120873 0.0529137
endloop
endfacet
facet normal 0.99797 0.0353821 0.0529471
outer loop
vertex -0.00502161 -0.00404917 0.0529137
vertex -0.0049885 -0.00391142 0.0521976
vertex -0.00555315 0.0120148 0.0521976
endloop
endfacet
facet normal 0.998312 0.0349033 0.0464171
outer loop
vertex -0.00505407 -0.00418667 0.0536297
vertex -0.00558975 0.0120873 0.0529137
vertex -0.00562559 0.0121602 0.0536297
endloop
endfacet
facet normal 0.99803 0.0351389 0.051983
outer loop
vertex -0.00505407 -0.00418667 0.0536297
vertex -0.00502161 -0.00404917 0.0529137
vertex -0.00558975 0.0120873 0.0529137
endloop
endfacet
facet normal 0.998367 0.0346597 0.0454002
outer loop
vertex -0.00508588 -0.0043239 0.0543458
vertex -0.00562559 0.0121602 0.0536297
vertex -0.00566069 0.0122333 0.0543458
endloop
endfacet
facet normal 0.998087 0.0348954 0.0510388
outer loop
vertex -0.00508588 -0.0043239 0.0543458
vertex -0.00505407 -0.00418667 0.0536297
vertex -0.00562559 0.0121602 0.0536297
endloop
endfacet
facet normal 0.998421 0.0344161 0.0444069
outer loop
vertex -0.00511708 -0.00446087 0.0550618
vertex -0.00566069 0.0122333 0.0543458
vertex -0.00569507 0.0123068 0.0550618
endloop
endfacet
facet normal 0.998142 0.0346519 0.0501141
outer loop
vertex -0.00511708 -0.00446087 0.0550618
vertex -0.00508588 -0.0043239 0.0543458
vertex -0.00566069 0.0122333 0.0543458
endloop
endfacet
facet normal 0.998472 0.0341728 0.0434368
outer loop
vertex -0.00514767 -0.00459759 0.0557779
vertex -0.00569507 0.0123068 0.0550618
vertex -0.00572874 0.0123805 0.0557779
endloop
endfacet
facet normal 0.998196 0.0344084 0.0492086
outer loop
vertex -0.00514767 -0.00459759 0.0557779
vertex -0.00511708 -0.00446087 0.0550618
vertex -0.00569507 0.0123068 0.0550618
endloop
endfacet
facet normal 0.998521 0.0339299 0.0424893
outer loop
vertex -0.00517766 -0.00473404 0.0564939
vertex -0.00572874 0.0123805 0.0557779
vertex -0.00576173 0.0124546 0.0564939
endloop
endfacet
facet normal 0.998247 0.0341652 0.048322
outer loop
vertex -0.00517766 -0.00473404 0.0564939
vertex -0.00514767 -0.00459759 0.0557779
vertex -0.00572874 0.0123805 0.0557779
endloop
endfacet
facet normal 0.998568 0.0336876 0.0415641
outer loop
vertex -0.00520707 -0.00487024 0.05721
vertex -0.00576173 0.0124546 0.0564939
vertex -0.00579404 0.0125289 0.05721
endloop
endfacet
facet normal 0.998297 0.0339223 0.0474538
outer loop
vertex -0.00520707 -0.00487024 0.05721
vertex -0.00517766 -0.00473404 0.0564939
vertex -0.00576173 0.0124546 0.0564939
endloop
endfacet
facet normal 0.998613 0.0334459 0.0406605
outer loop
vertex -0.00523591 -0.00500618 0.057926
vertex -0.00579404 0.0125289 0.05721
vertex -0.0058257 0.0126036 0.057926
endloop
endfacet
facet normal 0.998345 0.0336801 0.0466038
outer loop
vertex -0.00523591 -0.00500618 0.057926
vertex -0.00520707 -0.00487024 0.05721
vertex -0.00579404 0.0125289 0.05721
endloop
endfacet
facet normal 0.998657 0.033205 0.0397783
outer loop
vertex -0.00526419 -0.00514186 0.0586421
vertex -0.0058257 0.0126036 0.057926
vertex -0.00585671 0.0126785 0.0586421
endloop
endfacet
facet normal 0.998392 0.0334385 0.0457716
outer loop
vertex -0.00526419 -0.00514186 0.0586421
vertex -0.00523591 -0.00500618 0.057926
vertex -0.0058257 0.0126036 0.057926
endloop
endfacet
facet normal 0.998699 0.0329651 0.0389168
outer loop
vertex -0.00529193 -0.00527728 0.0593581
vertex -0.00585671 0.0126785 0.0586421
vertex -0.0058871 0.0127538 0.0593581
endloop
endfacet
facet normal 0.998437 0.0331977 0.0449569
outer loop
vertex -0.00529193 -0.00527728 0.0593581
vertex -0.00526419 -0.00514186 0.0586421
vertex -0.00585671 0.0126785 0.0586421
endloop
endfacet
facet normal 0.998739 0.0327262 0.0380756
outer loop
vertex -0.00531914 -0.00541244 0.0600742
vertex -0.0058871 0.0127538 0.0593581
vertex -0.00591687 0.0128293 0.0600742
endloop
endfacet
facet normal 0.998481 0.0329579 0.0441592
outer loop
vertex -0.00531914 -0.00541244 0.0600742
vertex -0.00529193 -0.00527728 0.0593581
vertex -0.0058871 0.0127538 0.0593581
endloop
endfacet
facet normal 0.998778 0.0324884 0.0372543
outer loop
vertex -0.00534582 -0.00554735 0.0607902
vertex -0.00591687 0.0128293 0.0600742
vertex -0.00594605 0.0129052 0.0607902
endloop
endfacet
facet normal 0.998523 0.0327191 0.0433783
outer loop
vertex -0.00534582 -0.00554735 0.0607902
vertex -0.00531914 -0.00541244 0.0600742
vertex -0.00591687 0.0128293 0.0600742
endloop
endfacet
facet normal 0.998815 0.0322518 0.0364524
outer loop
vertex -0.005372 -0.005682 0.0615062
vertex -0.00594605 0.0129052 0.0607902
vertex -0.00597464 0.0129814 0.0615062
endloop
endfacet
facet normal 0.998563 0.0324814 0.0426138
outer loop
vertex -0.005372 -0.005682 0.0615062
vertex -0.00534582 -0.00554735 0.0607902
vertex -0.00594605 0.0129052 0.0607902
endloop
endfacet
facet normal 0.998851 0.0320166 0.0356694
outer loop
vertex -0.00539768 -0.0058164 0.0622223
vertex -0.00597464 0.0129814 0.0615062
vertex -0.00600266 0.0130578 0.0622223
endloop
endfacet
facet normal 0.998603 0.032245 0.0418653
outer loop
vertex -0.00539768 -0.0058164 0.0622223
vertex -0.005372 -0.005682 0.0615062
vertex -0.00597464 0.0129814 0.0615062
endloop
endfacet
facet normal 0.998885 0.0317827 0.0349049
outer loop
vertex -0.00542287 -0.00595054 0.0629383
vertex -0.00600266 0.0130578 0.0622223
vertex -0.00603013 0.0131346 0.0629383
endloop
endfacet
facet normal 0.998641 0.0320099 0.0411325
outer loop
vertex -0.00542287 -0.00595054 0.0629383
vertex -0.00539768 -0.0058164 0.0622223
vertex -0.00600266 0.0130578 0.0622223
endloop
endfacet
facet normal 0.998918 0.0315503 0.0341585
outer loop
vertex -0.00544759 -0.00608444 0.0636544
vertex -0.00603013 0.0131346 0.0629383
vertex -0.00605704 0.0132116 0.0636544
endloop
endfacet
facet normal 0.998678 0.0317761 0.0404152
outer loop
vertex -0.00544759 -0.00608444 0.0636544
vertex -0.00542287 -0.00595054 0.0629383
vertex -0.00603013 0.0131346 0.0629383
endloop
endfacet
facet normal 0.99895 0.0313194 0.0334297
outer loop
vertex -0.00547184 -0.00621808 0.0643704
vertex -0.00605704 0.0132116 0.0636544
vertex -0.00608343 0.013289 0.0643704
endloop
endfacet
facet normal 0.998713 0.0315438 0.0397128
outer loop
vertex -0.00547184 -0.00621808 0.0643704
vertex -0.00544759 -0.00608444 0.0636544
vertex -0.00605704 0.0132116 0.0636544
endloop
endfacet
facet normal 0.998981 0.0310901 0.0327181
outer loop
vertex -0.00549564 -0.00635147 0.0650865
vertex -0.00608343 0.013289 0.0643704
vertex -0.0061093 0.0133666 0.0650865
endloop
endfacet
facet normal 0.998747 0.031313 0.0390252
outer loop
vertex -0.00549564 -0.00635147 0.0650865
vertex -0.00547184 -0.00621808 0.0643704
vertex -0.00608343 0.013289 0.0643704
endloop
endfacet
facet normal 0.999011 0.0308624 0.0320232
outer loop
vertex -0.00551899 -0.00648462 0.0658025
vertex -0.0061093 0.0133666 0.0650865
vertex -0.00613466 0.0134445 0.0658025
endloop
endfacet
facet normal 0.998781 0.0310839 0.038352
outer loop
vertex -0.00551899 -0.00648462 0.0658025
vertex -0.00549564 -0.00635147 0.0650865
vertex -0.0061093 0.0133666 0.0650865
endloop
endfacet
facet normal 0.999039 0.0306364 0.0313447
outer loop
vertex -0.00554191 -0.00661752 0.0665186
vertex -0.00613466 0.0134445 0.0658025
vertex -0.00615952 0.0135228 0.0665186
endloop
endfacet
facet normal 0.998813 0.0308563 0.0376929
outer loop
vertex -0.00554191 -0.00661752 0.0665186
vertex -0.00551899 -0.00648462 0.0658025
vertex -0.00613466 0.0134445 0.0658025
endloop
endfacet
facet normal 0.999066 0.0304121 0.0306822
outer loop
vertex -0.0055644 -0.00675018 0.0672346
vertex -0.00615952 0.0135228 0.0665186
vertex -0.0061839 0.0136013 0.0672346
endloop
endfacet
facet normal 0.998844 0.0306304 0.0370476
outer loop
vertex -0.0055644 -0.00675018 0.0672346
vertex -0.00554191 -0.00661752 0.0665186
vertex -0.00615952 0.0135228 0.0665186
endloop
endfacet
facet normal 0.999093 0.0301896 0.0300352
outer loop
vertex -0.00558647 -0.00688259 0.0679507
vertex -0.0061839 0.0136013 0.0672346
vertex -0.00620781 0.01368 0.0679507
endloop
endfacet
facet normal 0.998874 0.0304063 0.0364157
outer loop
vertex -0.00558647 -0.00688259 0.0679507
vertex -0.0055644 -0.00675018 0.0672346
vertex -0.0061839 0.0136013 0.0672346
endloop
endfacet
facet normal 0.999118 0.0299689 0.0294033
outer loop
vertex -0.00560814 -0.00701477 0.0686667
vertex -0.00620781 0.01368 0.0679507
vertex -0.00623126 0.0137591 0.0686667
endloop
endfacet
facet normal 0.998903 0.0301839 0.035797
outer loop
vertex -0.00560814 -0.00701477 0.0686667
vertex -0.00558647 -0.00688259 0.0679507
vertex -0.00620781 0.01368 0.0679507
endloop
endfacet
facet normal 0.999143 0.02975 0.0287863
outer loop
vertex -0.0056294 -0.00714671 0.0693828
vertex -0.00623126 0.0137591 0.0686667
vertex -0.00625425 0.0138385 0.0693828
endloop
endfacet
facet normal 0.998931 0.0299633 0.0351912
outer loop
vertex -0.0056294 -0.00714671 0.0693828
vertex -0.00560814 -0.00701477 0.0686667
vertex -0.00623126 0.0137591 0.0686667
endloop
endfacet
facet normal 0.999166 0.029533 0.0281837
outer loop
vertex -0.00565028 -0.0072784 0.0700988
vertex -0.00625425 0.0138385 0.0693828
vertex -0.0062768 0.0139181 0.0700988
endloop
endfacet
facet normal 0.998959 0.0297445 0.034598
outer loop
vertex -0.00565028 -0.0072784 0.0700988
vertex -0.0056294 -0.00714671 0.0693828
vertex -0.00625425 0.0138385 0.0693828
endloop
endfacet
facet normal 0.999189 0.0293178 0.0275952
outer loop
vertex -0.00567078 -0.00740987 0.0708149
vertex -0.0062768 0.0139181 0.0700988
vertex -0.00629892 0.013998 0.0708149
endloop
endfacet
facet normal 0.998985 0.0295276 0.0340171
outer loop
vertex -0.00567078 -0.00740987 0.0708149
vertex -0.00565028 -0.0072784 0.0700988
vertex -0.0062768 0.0139181 0.0700988
endloop
endfacet
facet normal 0.999211 0.0291045 0.0270204
outer loop
vertex -0.0056909 -0.0075411 0.0715309
vertex -0.00629892 0.013998 0.0708149
vertex -0.00632062 0.0140781 0.0715309
endloop
endfacet
facet normal 0.999011 0.0293126 0.0334482
outer loop
vertex -0.0056909 -0.0075411 0.0715309
vertex -0.00567078 -0.00740987 0.0708149
vertex -0.00629892 0.013998 0.0708149
endloop
endfacet
facet normal 0.999232 0.0288932 0.0264589
outer loop
vertex -0.00571066 -0.0076721 0.072247
vertex -0.00632062 0.0140781 0.0715309
vertex -0.0063419 0.0141586 0.072247
endloop
endfacet
facet normal 0.999035 0.0290994 0.0328911
outer loop
vertex -0.00571066 -0.0076721 0.072247
vertex -0.0056909 -0.0075411 0.0715309
vertex -0.00632062 0.0140781 0.0715309
endloop
endfacet
facet normal 0.999253 0.0286838 0.0259105
outer loop
vertex -0.00573006 -0.00780287 0.072963
vertex -0.0063419 0.0141586 0.072247
vertex -0.00636279 0.0142393 0.072963
endloop
endfacet
facet normal 0.999059 0.0288882 0.0323455
outer loop
vertex -0.00573006 -0.00780287 0.072963
vertex -0.00571066 -0.0076721 0.072247
vertex -0.0063419 0.0141586 0.072247
endloop
endfacet
facet normal 0.999272 0.0284763 0.0253748
outer loop
vertex -0.00574912 -0.00793341 0.0736791
vertex -0.00636279 0.0142393 0.072963
vertex -0.00638328 0.0143203 0.0736791
endloop
endfacet
facet normal 0.999082 0.0286789 0.0318111
outer loop
vertex -0.00574912 -0.00793341 0.0736791
vertex -0.00573006 -0.00780287 0.072963
vertex -0.00636279 0.0142393 0.072963
endloop
endfacet
facet normal 0.999291 0.0282707 0.0248514
outer loop
vertex -0.00576783 -0.00806373 0.0743951
vertex -0.00638328 0.0143203 0.0736791
vertex -0.00640338 0.0144015 0.0743951
endloop
endfacet
facet normal 0.999105 0.0284715 0.0312878
outer loop
vertex -0.00576783 -0.00806373 0.0743951
vertex -0.00574912 -0.00793341 0.0736791
vertex -0.00638328 0.0143203 0.0736791
endloop
endfacet
facet normal 0.99931 0.0280671 0.0243402
outer loop
vertex -0.0057862 -0.00819383 0.0751111
vertex -0.00640338 0.0144015 0.0743951
vertex -0.00642311 0.014483 0.0751111
endloop
endfacet
facet normal 0.999127 0.0282661 0.0307751
outer loop
vertex -0.0057862 -0.00819383 0.0751111
vertex -0.00576783 -0.00806373 0.0743951
vertex -0.00640338 0.0144015 0.0743951
endloop
endfacet
facet normal 0.999327 0.0278655 0.0238406
outer loop
vertex -0.00580425 -0.0083237 0.0758272
vertex -0.00642311 0.014483 0.0751111
vertex -0.00644248 0.0145648 0.0758272
endloop
endfacet
facet normal 0.999148 0.0280626 0.030273
outer loop
vertex -0.00580425 -0.0083237 0.0758272
vertex -0.0057862 -0.00819383 0.0751111
vertex -0.00642311 0.014483 0.0751111
endloop
endfacet
facet normal 0.999344 0.0276658 0.0233526
outer loop
vertex -0.00582198 -0.00845336 0.0765432
vertex -0.00644248 0.0145648 0.0758272
vertex -0.00646148 0.0146468 0.0765432
endloop
endfacet
facet normal 0.999168 0.0278611 0.0297811
outer loop
vertex -0.00582198 -0.00845336 0.0765432
vertex -0.00580425 -0.0083237 0.0758272
vertex -0.00644248 0.0145648 0.0758272
endloop
endfacet
facet normal 0.999361 0.0274681 0.0228757
outer loop
vertex -0.00583939 -0.00858279 0.0772593
vertex -0.00646148 0.0146468 0.0765432
vertex -0.00648013 0.014729 0.0772593
endloop
endfacet
facet normal 0.999188 0.0276615 0.0292993
outer loop
vertex -0.00583939 -0.00858279 0.0772593
vertex -0.00582198 -0.00845336 0.0765432
vertex -0.00646148 0.0146468 0.0765432
endloop
endfacet
facet normal 0.999377 0.0272724 0.0224098
outer loop
vertex -0.00585649 -0.00871202 0.0779753
vertex -0.00648013 0.014729 0.0772593
vertex -0.00649844 0.0148116 0.0779753
endloop
endfacet
facet normal 0.999207 0.0274639 0.0288273
outer loop
vertex -0.00585649 -0.00871202 0.0779753
vertex -0.00583939 -0.00858279 0.0772593
vertex -0.00648013 0.014729 0.0772593
endloop
endfacet
facet normal 0.999392 0.0270786 0.0219544
outer loop
vertex -0.0058733 -0.00884103 0.0786914
vertex -0.00649844 0.0148116 0.0779753
vertex -0.00651641 0.0148943 0.0786914
endloop
endfacet
facet normal 0.999226 0.0272683 0.0283648
outer loop
vertex -0.0058733 -0.00884103 0.0786914
vertex -0.00585649 -0.00871202 0.0779753
vertex -0.00649844 0.0148116 0.0779753
endloop
endfacet
facet normal 0.999407 0.0268868 0.0215094
outer loop
vertex -0.00588981 -0.00896982 0.0794074
vertex -0.00651641 0.0148943 0.0786914
vertex -0.00653406 0.0149773 0.0794074
endloop
endfacet
facet normal 0.999244 0.0270746 0.0279117
outer loop
vertex -0.00588981 -0.00896982 0.0794074
vertex -0.0058733 -0.00884103 0.0786914
vertex -0.00651641 0.0148943 0.0786914
endloop
endfacet
facet normal 0.999421 0.0266969 0.0210745
outer loop
vertex -0.00590604 -0.00909841 0.0801235
vertex -0.00653406 0.0149773 0.0794074
vertex -0.00655138 0.0150606 0.0801235
endloop
endfacet
facet normal 0.999261 0.0268828 0.0274678
outer loop
vertex -0.00590604 -0.00909841 0.0801235
vertex -0.00588981 -0.00896982 0.0794074
vertex -0.00653406 0.0149773 0.0794074
endloop
endfacet
facet normal 0.999435 0.0265089 0.0206495
outer loop
vertex -0.00592198 -0.0092268 0.0808395
vertex -0.00655138 0.0150606 0.0801235
vertex -0.00656839 0.0151441 0.0808395
endloop
endfacet
facet normal 0.999278 0.0266931 0.0270328
outer loop
vertex -0.00592198 -0.0092268 0.0808395
vertex -0.00590604 -0.00909841 0.0801235
vertex -0.00655138 0.0150606 0.0801235
endloop
endfacet
facet normal 0.999449 0.0263229 0.020234
outer loop
vertex -0.00593764 -0.00935497 0.0815556
vertex -0.00656839 0.0151441 0.0808395
vertex -0.00658509 0.0152278 0.0815556
endloop
endfacet
facet normal 0.999295 0.0265052 0.0266066
outer loop
vertex -0.00593764 -0.00935497 0.0815556
vertex -0.00592198 -0.0092268 0.0808395
vertex -0.00656839 0.0151441 0.0808395
endloop
endfacet
facet normal 0.999462 0.0261388 0.0198279
outer loop
vertex -0.00595304 -0.00948295 0.0822716
vertex -0.00658509 0.0152278 0.0815556
vertex -0.00660149 0.0153118 0.0822716
endloop
endfacet
facet normal 0.99931 0.0263193 0.0261889
outer loop
vertex -0.00595304 -0.00948295 0.0822716
vertex -0.00593764 -0.00935497 0.0815556
vertex -0.00658509 0.0152278 0.0815556
endloop
endfacet
facet normal 0.999474 0.0259566 0.019431
outer loop
vertex -0.00596817 -0.00961072 0.0829877
vertex -0.00660149 0.0153118 0.0822716
vertex -0.0066176 0.015396 0.0829877
endloop
endfacet
facet normal 0.999326 0.0261353 0.0257796
outer loop
vertex -0.00596817 -0.00961072 0.0829877
vertex -0.00595304 -0.00948295 0.0822716
vertex -0.00660149 0.0153118 0.0822716
endloop
endfacet
facet normal 0.999486 0.0257764 0.0190429
outer loop
vertex -0.00598304 -0.0097383 0.0837037
vertex -0.0066176 0.015396 0.0829877
vertex -0.00663342 0.0154804 0.0837037
endloop
endfacet
facet normal 0.999341 0.0259532 0.0253784
outer loop
vertex -0.00598304 -0.0097383 0.0837037
vertex -0.00596817 -0.00961072 0.0829877
vertex -0.0066176 0.015396 0.0829877
endloop
endfacet
facet normal 0.999498 0.025598 0.0186635
outer loop
vertex -0.00599766 -0.00986568 0.0844198
vertex -0.00663342 0.0154804 0.0837037
vertex -0.00664896 0.015565 0.0844198
endloop
endfacet
facet normal 0.999356 0.025773 0.0249853
outer loop
vertex -0.00599766 -0.00986568 0.0844198
vertex -0.00598304 -0.0097383 0.0837037
vertex -0.00663342 0.0154804 0.0837037
endloop
endfacet
facet normal 0.999509 0.0254214 0.0182925
outer loop
vertex -0.00601202 -0.00999286 0.0851358
vertex -0.00664896 0.015565 0.0844198
vertex -0.00666422 0.0156499 0.0851358
endloop
endfacet
facet normal 0.99937 0.0255947 0.0245999
outer loop
vertex -0.00601202 -0.00999286 0.0851358
vertex -0.00599766 -0.00986568 0.0844198
vertex -0.00664896 0.015565 0.0844198
endloop
endfacet
facet normal 0.99952 0.0252468 0.0179298
outer loop
vertex -0.00602615 -0.0101198 0.0858519
vertex -0.00666422 0.0156499 0.0851358
vertex -0.00667921 0.015735 0.0858519
endloop
endfacet
facet normal 0.999383 0.0254182 0.0242222
outer loop
vertex -0.00602615 -0.0101198 0.0858519
vertex -0.00601202 -0.00999286 0.0851358
vertex -0.00666422 0.0156499 0.0851358
endloop
endfacet
facet normal 0.999531 0.025074 0.0175751
outer loop
vertex -0.00604004 -0.0102466 0.0865679
vertex -0.00667921 0.015735 0.0858519
vertex -0.00669394 0.0158203 0.0865679
endloop
endfacet
facet normal 0.999397 0.0252437 0.023852
outer loop
vertex -0.00604004 -0.0102466 0.0865679
vertex -0.00602615 -0.0101198 0.0858519
vertex -0.00667921 0.015735 0.0858519
endloop
endfacet
facet normal 0.999541 0.024903 0.0172283
outer loop
vertex -0.00605369 -0.0103733 0.087284
vertex -0.00669394 0.0158203 0.0865679
vertex -0.00670842 0.0159059 0.087284
endloop
endfacet
facet normal 0.99941 0.0250709 0.023489
outer loop
vertex -0.00605369 -0.0103733 0.087284
vertex -0.00604004 -0.0102466 0.0865679
vertex -0.00669394 0.0158203 0.0865679
endloop
endfacet
facet normal 0.999551 0.0247338 0.0168891
outer loop
vertex -0.00606711 -0.0104997 0.088
vertex -0.00670842 0.0159059 0.087284
vertex -0.00672264 0.0159916 0.088
endloop
endfacet
facet normal 0.999422 0.0249 0.0231332
outer loop
vertex -0.00606711 -0.0104997 0.088
vertex -0.00605369 -0.0103733 0.087284
vertex -0.00670842 0.0159059 0.087284
endloop
endfacet
