solid outlet
facet normal 0.998305 0.00295428 0.0581253
outer loop
vertex 0.00709762 0.00157443 0.0509701
vertex 0.00704207 0.00869124 0.0503777
vertex 0.00707653 0.00870225 0.0509701
endloop
endfacet
facet normal 0.998316 0.00297018 0.0579353
outer loop
vertex 0.00709762 0.00157443 0.0509701
vertex 0.00706303 0.0016461 0.0503777
vertex 0.00704207 0.00869124 0.0503777
endloop
endfacet
facet normal 0.998365 0.00293934 0.0570848
outer loop
vertex 0.0071316 0.00150298 0.0515626
vertex 0.00707653 0.00870225 0.0509701
vertex 0.00711037 0.00871349 0.0515626
endloop
endfacet
facet normal 0.998375 0.00295449 0.0569017
outer loop
vertex 0.0071316 0.00150298 0.0515626
vertex 0.00709762 0.00157443 0.0509701
vertex 0.00707653 0.00870225 0.0509701
endloop
endfacet
facet normal 0.998423 0.00292511 0.0560644
outer loop
vertex 0.00716497 0.00143175 0.052155
vertex 0.00711037 0.00871349 0.0515626
vertex 0.00714361 0.00872495 0.052155
endloop
endfacet
facet normal 0.998433 0.00293954 0.055888
outer loop
vertex 0.00716497 0.00143175 0.052155
vertex 0.0071316 0.00150298 0.0515626
vertex 0.00711037 0.00871349 0.0515626
endloop
endfacet
facet normal 0.998479 0.00291154 0.055064
outer loop
vertex 0.00719775 0.00136075 0.0527475
vertex 0.00714361 0.00872495 0.052155
vertex 0.00717625 0.00873663 0.0527475
endloop
endfacet
facet normal 0.998488 0.0029253 0.0548937
outer loop
vertex 0.00719775 0.00136075 0.0527475
vertex 0.00716497 0.00143175 0.052155
vertex 0.00714361 0.00872495 0.052155
endloop
endfacet
facet normal 0.998532 0.00289858 0.054083
outer loop
vertex 0.00722995 0.00128997 0.0533399
vertex 0.00717625 0.00873663 0.0527475
vertex 0.0072083 0.00874854 0.0533399
endloop
endfacet
facet normal 0.998541 0.00291172 0.0539187
outer loop
vertex 0.00722995 0.00128997 0.0533399
vertex 0.00719775 0.00136075 0.0527475
vertex 0.00717625 0.00873663 0.0527475
endloop
endfacet
facet normal 0.998584 0.00288621 0.0531212
outer loop
vertex 0.00726158 0.00121941 0.0539324
vertex 0.0072083 0.00874854 0.0533399
vertex 0.00723978 0.00876067 0.0539324
endloop
endfacet
facet normal 0.998592 0.00289876 0.0529625
outer loop
vertex 0.00726158 0.00121941 0.0539324
vertex 0.00722995 0.00128997 0.0533399
vertex 0.0072083 0.00874854 0.0533399
endloop
endfacet
facet normal 0.998634 0.00287439 0.0521782
outer loop
vertex 0.00729264 0.00114909 0.0545248
vertex 0.00723978 0.00876067 0.0539324
vertex 0.0072707 0.00877303 0.0545248
endloop
endfacet
facet normal 0.998642 0.00288638 0.0520249
outer loop
vertex 0.00729264 0.00114909 0.0545248
vertex 0.00726158 0.00121941 0.0539324
vertex 0.00723978 0.00876067 0.0539324
endloop
endfacet
facet normal 0.998682 0.00286308 0.0512537
outer loop
vertex 0.00732316 0.00107898 0.0551172
vertex 0.0072707 0.00877303 0.0545248
vertex 0.00730107 0.00878561 0.0551172
endloop
endfacet
facet normal 0.998689 0.00287455 0.0511054
outer loop
vertex 0.00732316 0.00107898 0.0551172
vertex 0.00729264 0.00114909 0.0545248
vertex 0.0072707 0.00877303 0.0545248
endloop
endfacet
facet normal 0.998728 0.00285226 0.0503474
outer loop
vertex 0.00735314 0.0010091 0.0557097
vertex 0.00730107 0.00878561 0.0551172
vertex 0.0073309 0.00879842 0.0557097
endloop
endfacet
facet normal 0.998735 0.00286323 0.0502039
outer loop
vertex 0.00735314 0.0010091 0.0557097
vertex 0.00732316 0.00107898 0.0551172
vertex 0.00730107 0.00878561 0.0551172
endloop
endfacet
facet normal 0.998772 0.00284188 0.049459
outer loop
vertex 0.0073826 0.000939453 0.0563021
vertex 0.0073309 0.00879842 0.0557097
vertex 0.0073602 0.00881146 0.0563021
endloop
endfacet
facet normal 0.998779 0.0028524 0.04932
outer loop
vertex 0.0073826 0.000939453 0.0563021
vertex 0.00735314 0.0010091 0.0557097
vertex 0.0073309 0.00879842 0.0557097
endloop
endfacet
facet normal 0.998815 0.00283193 0.0485881
outer loop
vertex 0.00741154 0.000870027 0.0568946
vertex 0.0073602 0.00881146 0.0563021
vertex 0.00738898 0.00882472 0.0568946
endloop
endfacet
facet normal 0.998821 0.00284202 0.0484534
outer loop
vertex 0.00741154 0.000870027 0.0568946
vertex 0.0073826 0.000939453 0.0563021
vertex 0.0073602 0.00881146 0.0563021
endloop
endfacet
facet normal 0.998856 0.00282238 0.0477344
outer loop
vertex 0.00743997 0.000800827 0.057487
vertex 0.00738898 0.00882472 0.0568946
vertex 0.00741726 0.0088382 0.057487
endloop
endfacet
facet normal 0.998862 0.00283207 0.0476037
outer loop
vertex 0.00743997 0.000800827 0.057487
vertex 0.00741154 0.000870027 0.0568946
vertex 0.00738898 0.00882472 0.0568946
endloop
endfacet
facet normal 0.998896 0.00281321 0.0468976
outer loop
vertex 0.0074679 0.000731851 0.0580795
vertex 0.00741726 0.0088382 0.057487
vertex 0.00744503 0.00885192 0.0580795
endloop
endfacet
facet normal 0.998902 0.00282251 0.0467707
outer loop
vertex 0.0074679 0.000731851 0.0580795
vertex 0.00743997 0.000800827 0.057487
vertex 0.00741726 0.0088382 0.057487
endloop
endfacet
facet normal 0.998934 0.00280438 0.0460773
outer loop
vertex 0.00749535 0.000663101 0.0586719
vertex 0.00744503 0.00885192 0.0580795
vertex 0.00747232 0.00886585 0.0586719
endloop
endfacet
facet normal 0.99894 0.00281333 0.0459541
outer loop
vertex 0.00749535 0.000663101 0.0586719
vertex 0.0074679 0.000731851 0.0580795
vertex 0.00744503 0.00885192 0.0580795
endloop
endfacet
facet normal 0.998971 0.00279588 0.0452734
outer loop
vertex 0.00752232 0.000594574 0.0592644
vertex 0.00747232 0.00886585 0.0586719
vertex 0.00749913 0.00888001 0.0592644
endloop
endfacet
facet normal 0.998976 0.0028045 0.0451535
outer loop
vertex 0.00752232 0.000594574 0.0592644
vertex 0.00749535 0.000663101 0.0586719
vertex 0.00747232 0.00886585 0.0586719
endloop
endfacet
facet normal 0.999006 0.00278769 0.0444853
outer loop
vertex 0.00754882 0.000526271 0.0598568
vertex 0.00749913 0.00888001 0.0592644
vertex 0.00752547 0.0088944 0.0598568
endloop
endfacet
facet normal 0.999011 0.00279599 0.0443686
outer loop
vertex 0.00754882 0.000526271 0.0598568
vertex 0.00752232 0.000594574 0.0592644
vertex 0.00749913 0.00888001 0.0592644
endloop
endfacet
facet normal 0.99904 0.00277978 0.043713
outer loop
vertex 0.00757487 0.000458191 0.0604493
vertex 0.00752547 0.0088944 0.0598568
vertex 0.00755135 0.00890901 0.0604493
endloop
endfacet
facet normal 0.999045 0.0027878 0.0435992
outer loop
vertex 0.00757487 0.000458191 0.0604493
vertex 0.00754882 0.000526271 0.0598568
vertex 0.00752547 0.0088944 0.0598568
endloop
endfacet
facet normal 0.999073 0.00277214 0.0429559
outer loop
vertex 0.00760046 0.000390334 0.0610417
vertex 0.00755135 0.00890901 0.0604493
vertex 0.00757679 0.00892384 0.0610417
endloop
endfacet
facet normal 0.999078 0.00277988 0.042845
outer loop
vertex 0.00760046 0.000390334 0.0610417
vertex 0.00757487 0.000458191 0.0604493
vertex 0.00755135 0.00890901 0.0604493
endloop
endfacet
facet normal 0.999105 0.00276475 0.042214
outer loop
vertex 0.00762562 0.000322697 0.0616342
vertex 0.00757679 0.00892384 0.0610417
vertex 0.00760178 0.00893889 0.0616342
endloop
endfacet
facet normal 0.999109 0.00277224 0.0421056
outer loop
vertex 0.00762562 0.000322697 0.0616342
vertex 0.00760046 0.000390334 0.0610417
vertex 0.00757679 0.00892384 0.0610417
endloop
endfacet
facet normal 0.999135 0.00275759 0.0414867
outer loop
vertex 0.00765034 0.000255282 0.0622266
vertex 0.00760178 0.00893889 0.0616342
vertex 0.00762633 0.00895417 0.0622266
endloop
endfacet
facet normal 0.99914 0.00276484 0.0413808
outer loop
vertex 0.00765034 0.000255282 0.0622266
vertex 0.00762562 0.000322697 0.0616342
vertex 0.00760178 0.00893889 0.0616342
endloop
endfacet
facet normal 0.999165 0.00275065 0.040774
outer loop
vertex 0.00767464 0.000188085 0.0628191
vertex 0.00762633 0.00895417 0.0622266
vertex 0.00765047 0.00896966 0.0628191
endloop
endfacet
facet normal 0.999169 0.00275768 0.0406703
outer loop
vertex 0.00767464 0.000188085 0.0628191
vertex 0.00765034 0.000255282 0.0622266
vertex 0.00762633 0.00895417 0.0622266
endloop
endfacet
facet normal 0.999193 0.00274391 0.0400754
outer loop
vertex 0.00769853 0.000121107 0.0634115
vertex 0.00765047 0.00896966 0.0628191
vertex 0.00767419 0.00898538 0.0634115
endloop
endfacet
facet normal 0.999197 0.00275074 0.0399738
outer loop
vertex 0.00769853 0.000121107 0.0634115
vertex 0.00767464 0.000188085 0.0628191
vertex 0.00765047 0.00896966 0.0628191
endloop
endfacet
facet normal 0.99922 0.00273737 0.0393907
outer loop
vertex 0.00772201 5.43465e-05 0.0640039
vertex 0.00767419 0.00898538 0.0634115
vertex 0.0076975 0.00900131 0.0640039
endloop
endfacet
facet normal 0.999224 0.002744 0.039291
outer loop
vertex 0.00772201 5.43465e-05 0.0640039
vertex 0.00769853 0.000121107 0.0634115
vertex 0.00767419 0.00898538 0.0634115
endloop
endfacet
facet normal 0.999246 0.002731 0.0387196
outer loop
vertex 0.00774509 -1.21979e-05 0.0645964
vertex 0.0076975 0.00900131 0.0640039
vertex 0.00772041 0.00901745 0.0645964
endloop
endfacet
facet normal 0.99925 0.00273745 0.0386217
outer loop
vertex 0.00774509 -1.21979e-05 0.0645964
vertex 0.00772201 5.43465e-05 0.0640039
vertex 0.0076975 0.00900131 0.0640039
endloop
endfacet
facet normal 0.999272 0.00272479 0.0380619
outer loop
vertex 0.00776778 -7.85272e-05 0.0651888
vertex 0.00772041 0.00901745 0.0645964
vertex 0.00774293 0.00903382 0.0651888
endloop
endfacet
facet normal 0.999275 0.00273108 0.0379657
outer loop
vertex 0.00776778 -7.85272e-05 0.0651888
vertex 0.00774509 -1.21979e-05 0.0645964
vertex 0.00772041 0.00901745 0.0645964
endloop
endfacet
facet normal 0.999296 0.00271873 0.0374172
outer loop
vertex 0.00779009 -0.000144643 0.0657813
vertex 0.00774293 0.00903382 0.0651888
vertex 0.00776507 0.0090504 0.0657813
endloop
endfacet
facet normal 0.9993 0.00272486 0.0373225
outer loop
vertex 0.00779009 -0.000144643 0.0657813
vertex 0.00776778 -7.85272e-05 0.0651888
vertex 0.00774293 0.00903382 0.0651888
endloop
endfacet
facet normal 0.99932 0.00271282 0.0367854
outer loop
vertex 0.00781202 -0.000210546 0.0663737
vertex 0.00776507 0.0090504 0.0657813
vertex 0.00778683 0.00906719 0.0663737
endloop
endfacet
facet normal 0.999323 0.00271881 0.036692
outer loop
vertex 0.00781202 -0.000210546 0.0663737
vertex 0.00779009 -0.000144643 0.0657813
vertex 0.00776507 0.0090504 0.0657813
endloop
endfacet
facet normal 0.999342 0.00270704 0.036166
outer loop
vertex 0.00783358 -0.000276238 0.0669662
vertex 0.00778683 0.00906719 0.0663737
vertex 0.00780823 0.00908419 0.0669662
endloop
endfacet
facet normal 0.999345 0.00271289 0.036074
outer loop
vertex 0.00783358 -0.000276238 0.0669662
vertex 0.00781202 -0.000210546 0.0663737
vertex 0.00778683 0.00906719 0.0663737
endloop
endfacet
facet normal 0.999364 0.00270137 0.035559
outer loop
vertex 0.00785479 -0.00034172 0.0675586
vertex 0.00780823 0.00908419 0.0669662
vertex 0.00782926 0.0091014 0.0675586
endloop
endfacet
facet normal 0.999367 0.0027071 0.0354681
outer loop
vertex 0.00785479 -0.00034172 0.0675586
vertex 0.00783358 -0.000276238 0.0669662
vertex 0.00780823 0.00908419 0.0669662
endloop
endfacet
facet normal 0.999385 0.00269583 0.034964
outer loop
vertex 0.00787564 -0.000406993 0.0681511
vertex 0.00782926 0.0091014 0.0675586
vertex 0.00784994 0.00911882 0.0681511
endloop
endfacet
facet normal 0.999388 0.00270144 0.0348741
outer loop
vertex 0.00787564 -0.000406993 0.0681511
vertex 0.00785479 -0.00034172 0.0675586
vertex 0.00782926 0.0091014 0.0675586
endloop
endfacet
facet normal 0.999405 0.00269038 0.0343808
outer loop
vertex 0.00789614 -0.00047206 0.0687435
vertex 0.00784994 0.00911882 0.0681511
vertex 0.00787027 0.00913645 0.0687435
endloop
endfacet
facet normal 0.999408 0.00269589 0.0342919
outer loop
vertex 0.00789614 -0.00047206 0.0687435
vertex 0.00787564 -0.000406993 0.0681511
vertex 0.00784994 0.00911882 0.0681511
endloop
endfacet
facet normal 0.999425 0.00268503 0.0338091
outer loop
vertex 0.0079163 -0.00053692 0.069336
vertex 0.00787027 0.00913645 0.0687435
vertex 0.00789027 0.00915429 0.069336
endloop
endfacet
facet normal 0.999428 0.00269044 0.033721
outer loop
vertex 0.0079163 -0.00053692 0.069336
vertex 0.00789614 -0.00047206 0.0687435
vertex 0.00787027 0.00913645 0.0687435
endloop
endfacet
facet normal 0.999444 0.00267977 0.0332487
outer loop
vertex 0.00793613 -0.000601577 0.0699284
vertex 0.00789027 0.00915429 0.069336
vertex 0.00790993 0.00917233 0.0699284
endloop
endfacet
facet normal 0.999446 0.00268509 0.0331614
outer loop
vertex 0.00793613 -0.000601577 0.0699284
vertex 0.0079163 -0.00053692 0.069336
vertex 0.00789027 0.00915429 0.069336
endloop
endfacet
facet normal 0.999462 0.00267459 0.0326994
outer loop
vertex 0.00795564 -0.000666031 0.0705209
vertex 0.00790993 0.00917233 0.0699284
vertex 0.00792926 0.00919058 0.0705209
endloop
endfacet
facet normal 0.999464 0.00267983 0.0326127
outer loop
vertex 0.00795564 -0.000666031 0.0705209
vertex 0.00793613 -0.000601577 0.0699284
vertex 0.00790993 0.00917233 0.0699284
endloop
endfacet
facet normal 0.999479 0.00266949 0.0321609
outer loop
vertex 0.00797482 -0.000730284 0.0711133
vertex 0.00792926 0.00919058 0.0705209
vertex 0.00794828 0.00920902 0.0711133
endloop
endfacet
facet normal 0.999482 0.00267465 0.0320748
outer loop
vertex 0.00797482 -0.000730284 0.0711133
vertex 0.00795564 -0.000666031 0.0705209
vertex 0.00792926 0.00919058 0.0705209
endloop
endfacet
facet normal 0.999496 0.00266445 0.031633
outer loop
vertex 0.00799369 -0.000794338 0.0717057
vertex 0.00794828 0.00920902 0.0711133
vertex 0.00796698 0.00922767 0.0717057
endloop
endfacet
facet normal 0.999499 0.00266954 0.0315473
outer loop
vertex 0.00799369 -0.000794338 0.0717057
vertex 0.00797482 -0.000730284 0.0711133
vertex 0.00794828 0.00920902 0.0711133
endloop
endfacet
facet normal 0.999512 0.00265948 0.0311155
outer loop
vertex 0.00801226 -0.000858194 0.0722982
vertex 0.00796698 0.00922767 0.0717057
vertex 0.00798537 0.00924651 0.0722982
endloop
endfacet
facet normal 0.999515 0.0026645 0.0310302
outer loop
vertex 0.00801226 -0.000858194 0.0722982
vertex 0.00799369 -0.000794338 0.0717057
vertex 0.00796698 0.00922767 0.0717057
endloop
endfacet
facet normal 0.999528 0.00265457 0.0306082
outer loop
vertex 0.00803052 -0.000921853 0.0728906
vertex 0.00798537 0.00924651 0.0722982
vertex 0.00800346 0.00926555 0.0728906
endloop
endfacet
facet normal 0.999531 0.00265953 0.0305232
outer loop
vertex 0.00803052 -0.000921853 0.0728906
vertex 0.00801226 -0.000858194 0.0722982
vertex 0.00798537 0.00924651 0.0722982
endloop
endfacet
facet normal 0.999543 0.00264971 0.0301108
outer loop
vertex 0.00804848 -0.000985317 0.0734831
vertex 0.00800346 0.00926555 0.0728906
vertex 0.00802126 0.00928479 0.0734831
endloop
endfacet
facet normal 0.999546 0.00265462 0.0300261
outer loop
vertex 0.00804848 -0.000985317 0.0734831
vertex 0.00803052 -0.000921853 0.0728906
vertex 0.00800346 0.00926555 0.0728906
endloop
endfacet
facet normal 0.999558 0.0026449 0.0296232
outer loop
vertex 0.00806616 -0.00104859 0.0740755
vertex 0.00802126 0.00928479 0.0734831
vertex 0.00803876 0.00930422 0.0740755
endloop
endfacet
facet normal 0.99956 0.00264975 0.0295386
outer loop
vertex 0.00806616 -0.00104859 0.0740755
vertex 0.00804848 -0.000985317 0.0734831
vertex 0.00802126 0.00928479 0.0734831
endloop
endfacet
facet normal 0.999572 0.00264013 0.029145
outer loop
vertex 0.00808355 -0.00111167 0.074668
vertex 0.00803876 0.00930422 0.0740755
vertex 0.00805599 0.00932384 0.074668
endloop
endfacet
facet normal 0.999574 0.00264494 0.0290606
outer loop
vertex 0.00808355 -0.00111167 0.074668
vertex 0.00806616 -0.00104859 0.0740755
vertex 0.00803876 0.00930422 0.0740755
endloop
endfacet
facet normal 0.999585 0.0026354 0.0286762
outer loop
vertex 0.00810066 -0.00117456 0.0752604
vertex 0.00805599 0.00932384 0.074668
vertex 0.00807293 0.00934366 0.0752604
endloop
endfacet
facet normal 0.999588 0.00264017 0.0285919
outer loop
vertex 0.00810066 -0.00117456 0.0752604
vertex 0.00808355 -0.00111167 0.074668
vertex 0.00805599 0.00932384 0.074668
endloop
endfacet
facet normal 0.999598 0.0026307 0.0282166
outer loop
vertex 0.0081175 -0.00123726 0.0758529
vertex 0.00807293 0.00934366 0.0752604
vertex 0.0080896 0.00936366 0.0758529
endloop
endfacet
facet normal 0.999601 0.00263544 0.0281322
outer loop
vertex 0.0081175 -0.00123726 0.0758529
vertex 0.00810066 -0.00117456 0.0752604
vertex 0.00807293 0.00934366 0.0752604
endloop
endfacet
facet normal 0.999611 0.00262604 0.0277659
outer loop
vertex 0.00813407 -0.00129977 0.0764453
vertex 0.0080896 0.00936366 0.0758529
vertex 0.00810601 0.00938385 0.0764453
endloop
endfacet
facet normal 0.999613 0.00263074 0.0276814
outer loop
vertex 0.00813407 -0.00129977 0.0764453
vertex 0.0081175 -0.00123726 0.0758529
vertex 0.0080896 0.00936366 0.0758529
endloop
endfacet
facet normal 0.999623 0.00262141 0.0273239
outer loop
vertex 0.00815038 -0.0013621 0.0770378
vertex 0.00810601 0.00938385 0.0764453
vertex 0.00812215 0.00940422 0.0770378
endloop
endfacet
facet normal 0.999625 0.00262608 0.0272394
outer loop
vertex 0.00815038 -0.0013621 0.0770378
vertex 0.00813407 -0.00129977 0.0764453
vertex 0.00810601 0.00938385 0.0764453
endloop
endfacet
facet normal 0.999635 0.0026168 0.0268905
outer loop
vertex 0.00816643 -0.00142425 0.0776302
vertex 0.00812215 0.00940422 0.0770378
vertex 0.00813803 0.00942478 0.0776302
endloop
endfacet
facet normal 0.999637 0.00262145 0.0268058
outer loop
vertex 0.00816643 -0.00142425 0.0776302
vertex 0.00815038 -0.0013621 0.0770378
vertex 0.00812215 0.00940422 0.0770378
endloop
endfacet
facet normal 0.999646 0.00261222 0.0264655
outer loop
vertex 0.00818223 -0.00148621 0.0782227
vertex 0.00813803 0.00942478 0.0776302
vertex 0.00815366 0.00944552 0.0782227
endloop
endfacet
facet normal 0.999649 0.00261684 0.0263806
outer loop
vertex 0.00818223 -0.00148621 0.0782227
vertex 0.00816643 -0.00142425 0.0776302
vertex 0.00813803 0.00942478 0.0776302
endloop
endfacet
facet normal 0.999657 0.00260765 0.0260486
outer loop
vertex 0.00819777 -0.001548 0.0788151
vertex 0.00815366 0.00944552 0.0782227
vertex 0.00816904 0.00946645 0.0788151
endloop
endfacet
facet normal 0.999659 0.00261225 0.0259635
outer loop
vertex 0.00819777 -0.001548 0.0788151
vertex 0.00818223 -0.00148621 0.0782227
vertex 0.00815366 0.00944552 0.0782227
endloop
endfacet
facet normal 0.999668 0.00260311 0.0256399
outer loop
vertex 0.00821308 -0.0016096 0.0794076
vertex 0.00816904 0.00946645 0.0788151
vertex 0.00818418 0.00948755 0.0794076
endloop
endfacet
facet normal 0.99967 0.00260769 0.0255544
outer loop
vertex 0.00821308 -0.0016096 0.0794076
vertex 0.00819777 -0.001548 0.0788151
vertex 0.00816904 0.00946645 0.0788151
endloop
endfacet
facet normal 0.999678 0.00259858 0.0252389
outer loop
vertex 0.00822815 -0.00167103 0.08
vertex 0.00818418 0.00948755 0.0794076
vertex 0.00819909 0.00950883 0.08
endloop
endfacet
facet normal 0.99968 0.00260314 0.0251531
outer loop
vertex 0.00822815 -0.00167103 0.08
vertex 0.00821308 -0.0016096 0.0794076
vertex 0.00818418 0.00948755 0.0794076
endloop
endfacet
