solid outlet
facet normal 0.997863 0.00298952 0.0652684
outer loop
vertex 0.00688017 -0.0126655 0.0523408
vertex 0.00682384 0.00300968 0.0521976
vertex 0.00683312 0.00304009 0.0523408
endloop
endfacet
facet normal 0.997882 0.00299215 0.0649878
outer loop
vertex 0.00688017 -0.0126655 0.0523408
vertex 0.00687081 -0.0126531 0.0521976
vertex 0.00682384 0.00300968 0.0521976
endloop
endfacet
facet normal 0.997883 0.002987 0.0649594
outer loop
vertex 0.00688949 -0.012678 0.052484
vertex 0.00683312 0.00304009 0.0523408
vertex 0.00684235 0.00307048 0.052484
endloop
endfacet
facet normal 0.997902 0.00298963 0.0646775
outer loop
vertex 0.00688949 -0.012678 0.052484
vertex 0.00688017 -0.0126655 0.0523408
vertex 0.00683312 0.00304009 0.0523408
endloop
endfacet
facet normal 0.997903 0.00298448 0.0646518
outer loop
vertex 0.00689877 -0.0126904 0.0526273
vertex 0.00684235 0.00307048 0.052484
vertex 0.00685154 0.00310085 0.0526273
endloop
endfacet
facet normal 0.997922 0.00298712 0.0643687
outer loop
vertex 0.00689877 -0.0126904 0.0526273
vertex 0.00688949 -0.012678 0.052484
vertex 0.00684235 0.00307048 0.052484
endloop
endfacet
facet normal 0.997923 0.00298195 0.0643457
outer loop
vertex 0.006908 -0.0127029 0.0527705
vertex 0.00685154 0.00310085 0.0526273
vertex 0.00686068 0.0031312 0.0527705
endloop
endfacet
facet normal 0.997941 0.00298459 0.0640614
outer loop
vertex 0.006908 -0.0127029 0.0527705
vertex 0.00689877 -0.0126904 0.0526273
vertex 0.00685154 0.00310085 0.0526273
endloop
endfacet
facet normal 0.997943 0.00297942 0.064041
outer loop
vertex 0.00691718 -0.0127153 0.0529137
vertex 0.00686068 0.0031312 0.0527705
vertex 0.00686978 0.00316154 0.0529137
endloop
endfacet
facet normal 0.997961 0.00298206 0.0637555
outer loop
vertex 0.00691718 -0.0127153 0.0529137
vertex 0.006908 -0.0127029 0.0527705
vertex 0.00686068 0.0031312 0.0527705
endloop
endfacet
facet normal 0.997962 0.00297688 0.0637378
outer loop
vertex 0.00692633 -0.0127278 0.0530569
vertex 0.00686978 0.00316154 0.0529137
vertex 0.00687884 0.00319186 0.0530569
endloop
endfacet
facet normal 0.99798 0.00297953 0.0634511
outer loop
vertex 0.00692633 -0.0127278 0.0530569
vertex 0.00691718 -0.0127153 0.0529137
vertex 0.00686978 0.00316154 0.0529137
endloop
endfacet
facet normal 0.997981 0.00297434 0.0634361
outer loop
vertex 0.00693542 -0.0127403 0.0532001
vertex 0.00687884 0.00319186 0.0530569
vertex 0.00688785 0.00322217 0.0532001
endloop
endfacet
facet normal 0.998 0.00297699 0.0631482
outer loop
vertex 0.00693542 -0.0127403 0.0532001
vertex 0.00692633 -0.0127278 0.0530569
vertex 0.00687884 0.00319186 0.0530569
endloop
endfacet
facet normal 0.998001 0.00297179 0.0631358
outer loop
vertex 0.00694448 -0.0127528 0.0533433
vertex 0.00688785 0.00322217 0.0532001
vertex 0.00689682 0.00325246 0.0533433
endloop
endfacet
facet normal 0.998019 0.00297445 0.0628467
outer loop
vertex 0.00694448 -0.0127528 0.0533433
vertex 0.00693542 -0.0127403 0.0532001
vertex 0.00688785 0.00322217 0.0532001
endloop
endfacet
facet normal 0.998019 0.00296925 0.062837
outer loop
vertex 0.00695349 -0.0127654 0.0534865
vertex 0.00689682 0.00325246 0.0533433
vertex 0.00690575 0.00328273 0.0534865
endloop
endfacet
facet normal 0.998038 0.00297191 0.0625467
outer loop
vertex 0.00695349 -0.0127654 0.0534865
vertex 0.00694448 -0.0127528 0.0533433
vertex 0.00689682 0.00325246 0.0533433
endloop
endfacet
facet normal 0.998038 0.00296669 0.0625396
outer loop
vertex 0.00696246 -0.0127779 0.0536297
vertex 0.00690575 0.00328273 0.0534865
vertex 0.00691463 0.00331299 0.0536297
endloop
endfacet
facet normal 0.998056 0.00296935 0.0622481
outer loop
vertex 0.00696246 -0.0127779 0.0536297
vertex 0.00695349 -0.0127654 0.0534865
vertex 0.00690575 0.00328273 0.0534865
endloop
endfacet
facet normal 0.998057 0.00296413 0.0622436
outer loop
vertex 0.00697139 -0.0127905 0.0537729
vertex 0.00691463 0.00331299 0.0536297
vertex 0.00692347 0.00334322 0.0537729
endloop
endfacet
facet normal 0.998075 0.0029668 0.0619509
outer loop
vertex 0.00697139 -0.0127905 0.0537729
vertex 0.00696246 -0.0127779 0.0536297
vertex 0.00691463 0.00331299 0.0536297
endloop
endfacet
facet normal 0.998075 0.00296157 0.0619491
outer loop
vertex 0.00698027 -0.0128031 0.0539161
vertex 0.00692347 0.00334322 0.0537729
vertex 0.00693227 0.00337345 0.0539161
endloop
endfacet
facet normal 0.998093 0.00296424 0.0616552
outer loop
vertex 0.00698027 -0.0128031 0.0539161
vertex 0.00697139 -0.0127905 0.0537729
vertex 0.00692347 0.00334322 0.0537729
endloop
endfacet
facet normal 0.998093 0.00295901 0.061656
outer loop
vertex 0.00698911 -0.0128157 0.0540594
vertex 0.00693227 0.00337345 0.0539161
vertex 0.00694103 0.00340365 0.0540594
endloop
endfacet
facet normal 0.998111 0.00296168 0.0613609
outer loop
vertex 0.00698911 -0.0128157 0.0540594
vertex 0.00698027 -0.0128031 0.0539161
vertex 0.00693227 0.00337345 0.0539161
endloop
endfacet
facet normal 0.998111 0.00295644 0.0613643
outer loop
vertex 0.00699791 -0.0128283 0.0542026
vertex 0.00694103 0.00340365 0.0540594
vertex 0.00694974 0.00343384 0.0542026
endloop
endfacet
facet normal 0.998129 0.00295911 0.0610681
outer loop
vertex 0.00699791 -0.0128283 0.0542026
vertex 0.00698911 -0.0128157 0.0540594
vertex 0.00694103 0.00340365 0.0540594
endloop
endfacet
facet normal 0.998129 0.00295386 0.0610741
outer loop
vertex 0.00700667 -0.012841 0.0543458
vertex 0.00694974 0.00343384 0.0542026
vertex 0.00695842 0.00346401 0.0543458
endloop
endfacet
facet normal 0.998147 0.00295654 0.0607767
outer loop
vertex 0.00700667 -0.012841 0.0543458
vertex 0.00699791 -0.0128283 0.0542026
vertex 0.00694974 0.00343384 0.0542026
endloop
endfacet
facet normal 0.998147 0.00295128 0.0607853
outer loop
vertex 0.00701539 -0.0128536 0.054489
vertex 0.00695842 0.00346401 0.0543458
vertex 0.00696705 0.00349417 0.054489
endloop
endfacet
facet normal 0.998165 0.00295397 0.0604867
outer loop
vertex 0.00701539 -0.0128536 0.054489
vertex 0.00700667 -0.012841 0.0543458
vertex 0.00695842 0.00346401 0.0543458
endloop
endfacet
facet normal 0.998164 0.0029487 0.0604979
outer loop
vertex 0.00702406 -0.0128663 0.0546322
vertex 0.00696705 0.00349417 0.054489
vertex 0.00697564 0.00352431 0.0546322
endloop
endfacet
facet normal 0.998182 0.00295139 0.0601981
outer loop
vertex 0.00702406 -0.0128663 0.0546322
vertex 0.00701539 -0.0128536 0.054489
vertex 0.00696705 0.00349417 0.054489
endloop
endfacet
facet normal 0.998181 0.00294612 0.0602119
outer loop
vertex 0.00703269 -0.012879 0.0547754
vertex 0.00697564 0.00352431 0.0546322
vertex 0.00698419 0.00355443 0.0547754
endloop
endfacet
facet normal 0.998199 0.00294881 0.0599109
outer loop
vertex 0.00703269 -0.012879 0.0547754
vertex 0.00702406 -0.0128663 0.0546322
vertex 0.00697564 0.00352431 0.0546322
endloop
endfacet
facet normal 0.998198 0.00294353 0.0599273
outer loop
vertex 0.00704128 -0.0128917 0.0549186
vertex 0.00698419 0.00355443 0.0547754
vertex 0.0069927 0.00358454 0.0549186
endloop
endfacet
facet normal 0.998216 0.00294622 0.0596252
outer loop
vertex 0.00704128 -0.0128917 0.0549186
vertex 0.00703269 -0.012879 0.0547754
vertex 0.00698419 0.00355443 0.0547754
endloop
endfacet
facet normal 0.998215 0.00294093 0.0596441
outer loop
vertex 0.00704983 -0.0129044 0.0550618
vertex 0.0069927 0.00358454 0.0549186
vertex 0.00700117 0.00361462 0.0550618
endloop
endfacet
facet normal 0.998233 0.00294363 0.0593408
outer loop
vertex 0.00704983 -0.0129044 0.0550618
vertex 0.00704128 -0.0128917 0.0549186
vertex 0.0069927 0.00358454 0.0549186
endloop
endfacet
facet normal 0.998232 0.00293834 0.0593623
outer loop
vertex 0.00705834 -0.0129172 0.055205
vertex 0.00700117 0.00361462 0.0550618
vertex 0.00700959 0.00364469 0.055205
endloop
endfacet
facet normal 0.99825 0.00294104 0.0590579
outer loop
vertex 0.00705834 -0.0129172 0.055205
vertex 0.00704983 -0.0129044 0.0550618
vertex 0.00700117 0.00361462 0.0550618
endloop
endfacet
facet normal 0.998249 0.00293574 0.0590819
outer loop
vertex 0.00706681 -0.0129299 0.0553482
vertex 0.00700959 0.00364469 0.055205
vertex 0.00701798 0.00367475 0.0553482
endloop
endfacet
facet normal 0.998267 0.00293844 0.0587763
outer loop
vertex 0.00706681 -0.0129299 0.0553482
vertex 0.00705834 -0.0129172 0.055205
vertex 0.00700959 0.00364469 0.055205
endloop
endfacet
facet normal 0.998265 0.00293313 0.0588028
outer loop
vertex 0.00707524 -0.0129427 0.0554914
vertex 0.00701798 0.00367475 0.0553482
vertex 0.00702633 0.00370479 0.0554914
endloop
endfacet
facet normal 0.998283 0.00293584 0.0584962
outer loop
vertex 0.00707524 -0.0129427 0.0554914
vertex 0.00706681 -0.0129299 0.0553482
vertex 0.00701798 0.00367475 0.0553482
endloop
endfacet
facet normal 0.998282 0.00293053 0.0585252
outer loop
vertex 0.00708363 -0.0129555 0.0556347
vertex 0.00702633 0.00370479 0.0554914
vertex 0.00703464 0.00373481 0.0556347
endloop
endfacet
facet normal 0.9983 0.00293324 0.0582174
outer loop
vertex 0.00708363 -0.0129555 0.0556347
vertex 0.00707524 -0.0129427 0.0554914
vertex 0.00702633 0.00370479 0.0554914
endloop
endfacet
facet normal 0.998298 0.00292792 0.0582489
outer loop
vertex 0.00709198 -0.0129683 0.0557779
vertex 0.00703464 0.00373481 0.0556347
vertex 0.0070429 0.00376481 0.0557779
endloop
endfacet
facet normal 0.998316 0.00293063 0.05794
outer loop
vertex 0.00709198 -0.0129683 0.0557779
vertex 0.00708363 -0.0129555 0.0556347
vertex 0.00703464 0.00373481 0.0556347
endloop
endfacet
facet normal 0.998314 0.0029253 0.057974
outer loop
vertex 0.00710029 -0.0129811 0.0559211
vertex 0.0070429 0.00376481 0.0557779
vertex 0.00705113 0.0037948 0.0559211
endloop
endfacet
facet normal 0.998332 0.00292802 0.057664
outer loop
vertex 0.00710029 -0.0129811 0.0559211
vertex 0.00709198 -0.0129683 0.0557779
vertex 0.0070429 0.00376481 0.0557779
endloop
endfacet
facet normal 0.99833 0.00292269 0.0577005
outer loop
vertex 0.00710856 -0.012994 0.0560643
vertex 0.00705113 0.0037948 0.0559211
vertex 0.00705932 0.00382477 0.0560643
endloop
endfacet
facet normal 0.998348 0.0029254 0.0573893
outer loop
vertex 0.00710856 -0.012994 0.0560643
vertex 0.00710029 -0.0129811 0.0559211
vertex 0.00705113 0.0037948 0.0559211
endloop
endfacet
facet normal 0.998345 0.00292007 0.0574284
outer loop
vertex 0.00711679 -0.0130068 0.0562075
vertex 0.00705932 0.00382477 0.0560643
vertex 0.00706747 0.00385472 0.0562075
endloop
endfacet
facet normal 0.998363 0.00292278 0.057116
outer loop
vertex 0.00711679 -0.0130068 0.0562075
vertex 0.00710856 -0.012994 0.0560643
vertex 0.00705932 0.00382477 0.0560643
endloop
endfacet
facet normal 0.998361 0.00291744 0.0571576
outer loop
vertex 0.00712498 -0.0130197 0.0563507
vertex 0.00706747 0.00385472 0.0562075
vertex 0.00707558 0.00388465 0.0563507
endloop
endfacet
facet normal 0.998379 0.00292016 0.0568441
outer loop
vertex 0.00712498 -0.0130197 0.0563507
vertex 0.00711679 -0.0130068 0.0562075
vertex 0.00706747 0.00385472 0.0562075
endloop
endfacet
facet normal 0.998376 0.00291482 0.0568881
outer loop
vertex 0.00713314 -0.0130326 0.0564939
vertex 0.00707558 0.00388465 0.0563507
vertex 0.00708366 0.00391457 0.0564939
endloop
endfacet
facet normal 0.998394 0.00291754 0.0565736
outer loop
vertex 0.00713314 -0.0130326 0.0564939
vertex 0.00712498 -0.0130197 0.0563507
vertex 0.00707558 0.00388465 0.0563507
endloop
endfacet
facet normal 0.998392 0.00291219 0.05662
outer loop
vertex 0.00714125 -0.0130455 0.0566371
vertex 0.00708366 0.00391457 0.0564939
vertex 0.00709169 0.00394447 0.0566371
endloop
endfacet
facet normal 0.998409 0.00291491 0.0563044
outer loop
vertex 0.00714125 -0.0130455 0.0566371
vertex 0.00713314 -0.0130326 0.0564939
vertex 0.00708366 0.00391457 0.0564939
endloop
endfacet
facet normal 0.998407 0.00290955 0.0563533
outer loop
vertex 0.00714932 -0.0130584 0.0567803
vertex 0.00709169 0.00394447 0.0566371
vertex 0.00709969 0.00397435 0.0567803
endloop
endfacet
facet normal 0.998424 0.00291228 0.0560365
outer loop
vertex 0.00714932 -0.0130584 0.0567803
vertex 0.00714125 -0.0130455 0.0566371
vertex 0.00709169 0.00394447 0.0566371
endloop
endfacet
facet normal 0.998422 0.00290692 0.0560879
outer loop
vertex 0.00715736 -0.0130714 0.0569235
vertex 0.00709969 0.00397435 0.0567803
vertex 0.00710765 0.00400422 0.0569235
endloop
endfacet
facet normal 0.998439 0.00290965 0.05577
outer loop
vertex 0.00715736 -0.0130714 0.0569235
vertex 0.00714932 -0.0130584 0.0567803
vertex 0.00709969 0.00397435 0.0567803
endloop
endfacet
facet normal 0.998436 0.00290428 0.0558238
outer loop
vertex 0.00716536 -0.0130843 0.0570668
vertex 0.00710765 0.00400422 0.0569235
vertex 0.00711557 0.00403407 0.0570668
endloop
endfacet
facet normal 0.998454 0.00290701 0.0555048
outer loop
vertex 0.00716536 -0.0130843 0.0570668
vertex 0.00715736 -0.0130714 0.0569235
vertex 0.00710765 0.00400422 0.0569235
endloop
endfacet
facet normal 0.998451 0.00290164 0.0555611
outer loop
vertex 0.00717332 -0.0130973 0.05721
vertex 0.00711557 0.00403407 0.0570668
vertex 0.00712345 0.0040639 0.05721
endloop
endfacet
facet normal 0.998469 0.00290437 0.055241
outer loop
vertex 0.00717332 -0.0130973 0.05721
vertex 0.00716536 -0.0130843 0.0570668
vertex 0.00711557 0.00403407 0.0570668
endloop
endfacet
facet normal 0.998466 0.00289899 0.0552997
outer loop
vertex 0.00718124 -0.0131103 0.0573532
vertex 0.00712345 0.0040639 0.05721
vertex 0.00713129 0.00409372 0.0573532
endloop
endfacet
facet normal 0.998483 0.00290173 0.0549785
outer loop
vertex 0.00718124 -0.0131103 0.0573532
vertex 0.00717332 -0.0130973 0.05721
vertex 0.00712345 0.0040639 0.05721
endloop
endfacet
facet normal 0.99848 0.00289635 0.0550395
outer loop
vertex 0.00718913 -0.0131233 0.0574964
vertex 0.00713129 0.00409372 0.0573532
vertex 0.0071391 0.00412352 0.0574964
endloop
endfacet
facet normal 0.998498 0.00289909 0.0547173
outer loop
vertex 0.00718913 -0.0131233 0.0574964
vertex 0.00718124 -0.0131103 0.0573532
vertex 0.00713129 0.00409372 0.0573532
endloop
endfacet
facet normal 0.998494 0.0028937 0.0547808
outer loop
vertex 0.00719698 -0.0131363 0.0576396
vertex 0.0071391 0.00412352 0.0574964
vertex 0.00714687 0.0041533 0.0576396
endloop
endfacet
facet normal 0.998512 0.00289644 0.0544574
outer loop
vertex 0.00719698 -0.0131363 0.0576396
vertex 0.00718913 -0.0131233 0.0574964
vertex 0.0071391 0.00412352 0.0574964
endloop
endfacet
facet normal 0.998508 0.00289105 0.0545233
outer loop
vertex 0.00720479 -0.0131494 0.0577828
vertex 0.00714687 0.0041533 0.0576396
vertex 0.00715461 0.00418306 0.0577828
endloop
endfacet
facet normal 0.998526 0.00289379 0.0541988
outer loop
vertex 0.00720479 -0.0131494 0.0577828
vertex 0.00719698 -0.0131363 0.0576396
vertex 0.00714687 0.0041533 0.0576396
endloop
endfacet
facet normal 0.998522 0.00288839 0.0542671
outer loop
vertex 0.00721256 -0.0131624 0.057926
vertex 0.00715461 0.00418306 0.0577828
vertex 0.0071623 0.00421281 0.057926
endloop
endfacet
facet normal 0.99854 0.00289114 0.0539416
outer loop
vertex 0.00721256 -0.0131624 0.057926
vertex 0.00720479 -0.0131494 0.0577828
vertex 0.00715461 0.00418306 0.0577828
endloop
endfacet
facet normal 0.998536 0.00288573 0.0540122
outer loop
vertex 0.0072203 -0.0131755 0.0580692
vertex 0.0071623 0.00421281 0.057926
vertex 0.00716996 0.00424254 0.0580692
endloop
endfacet
facet normal 0.998554 0.00288848 0.0536856
outer loop
vertex 0.0072203 -0.0131755 0.0580692
vertex 0.00721256 -0.0131624 0.057926
vertex 0.0071623 0.00421281 0.057926
endloop
endfacet
facet normal 0.99855 0.00288307 0.0537587
outer loop
vertex 0.007228 -0.0131886 0.0582124
vertex 0.00716996 0.00424254 0.0580692
vertex 0.00717759 0.00427225 0.0582124
endloop
endfacet
facet normal 0.998567 0.00288582 0.053431
outer loop
vertex 0.007228 -0.0131886 0.0582124
vertex 0.0072203 -0.0131755 0.0580692
vertex 0.00716996 0.00424254 0.0580692
endloop
endfacet
facet normal 0.998563 0.00288041 0.0535064
outer loop
vertex 0.00723567 -0.0132017 0.0583556
vertex 0.00717759 0.00427225 0.0582124
vertex 0.00718518 0.00430194 0.0583556
endloop
endfacet
facet normal 0.998581 0.00288316 0.0531776
outer loop
vertex 0.00723567 -0.0132017 0.0583556
vertex 0.007228 -0.0131886 0.0582124
vertex 0.00717759 0.00427225 0.0582124
endloop
endfacet
facet normal 0.998577 0.00287775 0.0532554
outer loop
vertex 0.00724329 -0.0132149 0.0584988
vertex 0.00718518 0.00430194 0.0583556
vertex 0.00719273 0.00433162 0.0584988
endloop
endfacet
facet normal 0.998594 0.0028805 0.0529256
outer loop
vertex 0.00724329 -0.0132149 0.0584988
vertex 0.00723567 -0.0132017 0.0583556
vertex 0.00718518 0.00430194 0.0583556
endloop
endfacet
facet normal 0.99859 0.00287508 0.0530056
outer loop
vertex 0.00725089 -0.013228 0.0586421
vertex 0.00719273 0.00433162 0.0584988
vertex 0.00720024 0.00436128 0.0586421
endloop
endfacet
facet normal 0.998608 0.00287783 0.0526748
outer loop
vertex 0.00725089 -0.013228 0.0586421
vertex 0.00724329 -0.0132149 0.0584988
vertex 0.00719273 0.00433162 0.0584988
endloop
endfacet
facet normal 0.998603 0.00287241 0.0527572
outer loop
vertex 0.00725844 -0.0132412 0.0587853
vertex 0.00720024 0.00436128 0.0586421
vertex 0.00720772 0.00439093 0.0587853
endloop
endfacet
facet normal 0.998621 0.00287517 0.0524253
outer loop
vertex 0.00725844 -0.0132412 0.0587853
vertex 0.00725089 -0.013228 0.0586421
vertex 0.00720024 0.00436128 0.0586421
endloop
endfacet
facet normal 0.998616 0.00286974 0.05251
outer loop
vertex 0.00726596 -0.0132544 0.0589285
vertex 0.00720772 0.00439093 0.0587853
vertex 0.00721517 0.00442055 0.0589285
endloop
endfacet
facet normal 0.998634 0.0028725 0.052177
outer loop
vertex 0.00726596 -0.0132544 0.0589285
vertex 0.00725844 -0.0132412 0.0587853
vertex 0.00720772 0.00439093 0.0587853
endloop
endfacet
facet normal 0.998629 0.00286706 0.052264
outer loop
vertex 0.00727345 -0.0132676 0.0590717
vertex 0.00721517 0.00442055 0.0589285
vertex 0.00722258 0.00445016 0.0590717
endloop
endfacet
facet normal 0.998647 0.00286982 0.0519301
outer loop
vertex 0.00727345 -0.0132676 0.0590717
vertex 0.00726596 -0.0132544 0.0589285
vertex 0.00721517 0.00442055 0.0589285
endloop
endfacet
facet normal 0.998642 0.00286439 0.0520194
outer loop
vertex 0.0072809 -0.0132808 0.0592149
vertex 0.00722258 0.00445016 0.0590717
vertex 0.00722995 0.00447975 0.0592149
endloop
endfacet
facet normal 0.998659 0.00286715 0.0516844
outer loop
vertex 0.0072809 -0.0132808 0.0592149
vertex 0.00727345 -0.0132676 0.0590717
vertex 0.00722258 0.00445016 0.0590717
endloop
endfacet
facet normal 0.998655 0.00286171 0.051776
outer loop
vertex 0.00728831 -0.013294 0.0593581
vertex 0.00722995 0.00447975 0.0592149
vertex 0.00723729 0.00450933 0.0593581
endloop
endfacet
facet normal 0.998672 0.00286447 0.0514399
outer loop
vertex 0.00728831 -0.013294 0.0593581
vertex 0.0072809 -0.0132808 0.0592149
vertex 0.00722995 0.00447975 0.0592149
endloop
endfacet
facet normal 0.998667 0.00285903 0.0515338
outer loop
vertex 0.00729569 -0.0133073 0.0595013
vertex 0.00723729 0.00450933 0.0593581
vertex 0.0072446 0.00453888 0.0595013
endloop
endfacet
facet normal 0.998684 0.00286179 0.0511967
outer loop
vertex 0.00729569 -0.0133073 0.0595013
vertex 0.00728831 -0.013294 0.0593581
vertex 0.00723729 0.00450933 0.0593581
endloop
endfacet
facet normal 0.99868 0.00285634 0.0512929
outer loop
vertex 0.00730304 -0.0133205 0.0596445
vertex 0.0072446 0.00453888 0.0595013
vertex 0.00725187 0.00456842 0.0596445
endloop
endfacet
facet normal 0.998697 0.00285911 0.0509548
outer loop
vertex 0.00730304 -0.0133205 0.0596445
vertex 0.00729569 -0.0133073 0.0595013
vertex 0.0072446 0.00453888 0.0595013
endloop
endfacet
facet normal 0.998692 0.00285366 0.0510532
outer loop
vertex 0.00731035 -0.0133338 0.0597877
vertex 0.00725187 0.00456842 0.0596445
vertex 0.00725911 0.00459795 0.0597877
endloop
endfacet
facet normal 0.998709 0.00285643 0.0507141
outer loop
vertex 0.00731035 -0.0133338 0.0597877
vertex 0.00730304 -0.0133205 0.0596445
vertex 0.00725187 0.00456842 0.0596445
endloop
endfacet
facet normal 0.998704 0.00285097 0.0508147
outer loop
vertex 0.00731762 -0.0133471 0.0599309
vertex 0.00725911 0.00459795 0.0597877
vertex 0.00726631 0.00462745 0.0599309
endloop
endfacet
facet normal 0.998721 0.00285374 0.0504746
outer loop
vertex 0.00731762 -0.0133471 0.0599309
vertex 0.00731035 -0.0133338 0.0597877
vertex 0.00725911 0.00459795 0.0597877
endloop
endfacet
facet normal 0.998716 0.00284828 0.0505775
outer loop
vertex 0.00732486 -0.0133604 0.0600742
vertex 0.00726631 0.00462745 0.0599309
vertex 0.00727348 0.00465694 0.0600742
endloop
endfacet
facet normal 0.998733 0.00285106 0.0502363
outer loop
vertex 0.00732486 -0.0133604 0.0600742
vertex 0.00731762 -0.0133471 0.0599309
vertex 0.00726631 0.00462745 0.0599309
endloop
endfacet
facet normal 0.998728 0.00284559 0.0503415
outer loop
vertex 0.00733207 -0.0133738 0.0602174
vertex 0.00727348 0.00465694 0.0600742
vertex 0.00728061 0.00468641 0.0602174
endloop
endfacet
facet normal 0.998745 0.00284837 0.0499993
outer loop
vertex 0.00733207 -0.0133738 0.0602174
vertex 0.00732486 -0.0133604 0.0600742
vertex 0.00727348 0.00465694 0.0600742
endloop
endfacet
facet normal 0.99874 0.0028429 0.0501067
outer loop
vertex 0.00733924 -0.0133871 0.0603606
vertex 0.00728061 0.00468641 0.0602174
vertex 0.00728771 0.00471586 0.0603606
endloop
endfacet
facet normal 0.998757 0.00284568 0.0497635
outer loop
vertex 0.00733924 -0.0133871 0.0603606
vertex 0.00733207 -0.0133738 0.0602174
vertex 0.00728061 0.00468641 0.0602174
endloop
endfacet
facet normal 0.998752 0.00284021 0.0498731
outer loop
vertex 0.00734638 -0.0134005 0.0605038
vertex 0.00728771 0.00471586 0.0603606
vertex 0.00729478 0.0047453 0.0605038
endloop
endfacet
facet normal 0.998769 0.00284298 0.0495289
outer loop
vertex 0.00734638 -0.0134005 0.0605038
vertex 0.00733924 -0.0133871 0.0603606
vertex 0.00728771 0.00471586 0.0603606
endloop
endfacet
facet normal 0.998763 0.00283751 0.0496407
outer loop
vertex 0.00735349 -0.0134139 0.060647
vertex 0.00729478 0.0047453 0.0605038
vertex 0.00730182 0.00477472 0.060647
endloop
endfacet
facet normal 0.99878 0.00284029 0.0492955
outer loop
vertex 0.00735349 -0.0134139 0.060647
vertex 0.00734638 -0.0134005 0.0605038
vertex 0.00729478 0.0047453 0.0605038
endloop
endfacet
facet normal 0.998775 0.00283482 0.0494095
outer loop
vertex 0.00736056 -0.0134273 0.0607902
vertex 0.00730182 0.00477472 0.060647
vertex 0.00730882 0.00480412 0.0607902
endloop
endfacet
facet normal 0.998792 0.00283759 0.0490634
outer loop
vertex 0.00736056 -0.0134273 0.0607902
vertex 0.00735349 -0.0134139 0.060647
vertex 0.00730182 0.00477472 0.060647
endloop
endfacet
facet normal 0.998786 0.00283212 0.0491795
outer loop
vertex 0.0073676 -0.0134407 0.0609334
vertex 0.00730882 0.00480412 0.0607902
vertex 0.00731578 0.00483351 0.0609334
endloop
endfacet
facet normal 0.998803 0.0028349 0.0488324
outer loop
vertex 0.0073676 -0.0134407 0.0609334
vertex 0.00736056 -0.0134273 0.0607902
vertex 0.00730882 0.00480412 0.0607902
endloop
endfacet
facet normal 0.998797 0.00282942 0.0489507
outer loop
vertex 0.00737461 -0.0134542 0.0610766
vertex 0.00731578 0.00483351 0.0609334
vertex 0.00732272 0.00486288 0.0610766
endloop
endfacet
facet normal 0.998814 0.0028322 0.0486026
outer loop
vertex 0.00737461 -0.0134542 0.0610766
vertex 0.0073676 -0.0134407 0.0609334
vertex 0.00731578 0.00483351 0.0609334
endloop
endfacet
facet normal 0.998808 0.00282671 0.0487231
outer loop
vertex 0.00738158 -0.0134676 0.0612198
vertex 0.00732272 0.00486288 0.0610766
vertex 0.00732962 0.00489223 0.0612198
endloop
endfacet
facet normal 0.998825 0.0028295 0.048374
outer loop
vertex 0.00738158 -0.0134676 0.0612198
vertex 0.00737461 -0.0134542 0.0610766
vertex 0.00732272 0.00486288 0.0610766
endloop
endfacet
facet normal 0.998819 0.00282401 0.0484966
outer loop
vertex 0.00738852 -0.0134811 0.061363
vertex 0.00732962 0.00489223 0.0612198
vertex 0.00733649 0.00492156 0.061363
endloop
endfacet
facet normal 0.998836 0.00282679 0.0481466
outer loop
vertex 0.00738852 -0.0134811 0.061363
vertex 0.00738158 -0.0134676 0.0612198
vertex 0.00732962 0.00489223 0.0612198
endloop
endfacet
facet normal 0.99883 0.00282131 0.0482714
outer loop
vertex 0.00739543 -0.0134946 0.0615062
vertex 0.00733649 0.00492156 0.061363
vertex 0.00734333 0.00495088 0.0615062
endloop
endfacet
facet normal 0.998847 0.00282409 0.0479203
outer loop
vertex 0.00739543 -0.0134946 0.0615062
vertex 0.00738852 -0.0134811 0.061363
vertex 0.00733649 0.00492156 0.061363
endloop
endfacet
facet normal 0.998841 0.0028186 0.0480473
outer loop
vertex 0.00740231 -0.0135081 0.0616495
vertex 0.00734333 0.00495088 0.0615062
vertex 0.00735014 0.00498018 0.0616495
endloop
endfacet
facet normal 0.998858 0.00282138 0.0476953
outer loop
vertex 0.00740231 -0.0135081 0.0616495
vertex 0.00739543 -0.0134946 0.0615062
vertex 0.00734333 0.00495088 0.0615062
endloop
endfacet
facet normal 0.998852 0.00281589 0.0478243
outer loop
vertex 0.00740915 -0.0135216 0.0617927
vertex 0.00735014 0.00498018 0.0616495
vertex 0.00735691 0.00500946 0.0617927
endloop
endfacet
facet normal 0.998869 0.00281868 0.0474714
outer loop
vertex 0.00740915 -0.0135216 0.0617927
vertex 0.00740231 -0.0135081 0.0616495
vertex 0.00735014 0.00498018 0.0616495
endloop
endfacet
facet normal 0.998862 0.00281318 0.0476025
outer loop
vertex 0.00741597 -0.0135352 0.0619359
vertex 0.00735691 0.00500946 0.0617927
vertex 0.00736365 0.00503873 0.0619359
endloop
endfacet
facet normal 0.998879 0.00281597 0.0472486
outer loop
vertex 0.00741597 -0.0135352 0.0619359
vertex 0.00740915 -0.0135216 0.0617927
vertex 0.00735691 0.00500946 0.0617927
endloop
endfacet
facet normal 0.998873 0.00281047 0.0473819
outer loop
vertex 0.00742275 -0.0135487 0.0620791
vertex 0.00736365 0.00503873 0.0619359
vertex 0.00737037 0.00506797 0.0620791
endloop
endfacet
facet normal 0.99889 0.00281326 0.0470271
outer loop
vertex 0.00742275 -0.0135487 0.0620791
vertex 0.00741597 -0.0135352 0.0619359
vertex 0.00736365 0.00503873 0.0619359
endloop
endfacet
facet normal 0.998883 0.00280776 0.0471624
outer loop
vertex 0.00742949 -0.0135623 0.0622223
vertex 0.00737037 0.00506797 0.0620791
vertex 0.00737704 0.0050972 0.0622223
endloop
endfacet
facet normal 0.9989 0.00281055 0.0468066
outer loop
vertex 0.00742949 -0.0135623 0.0622223
vertex 0.00742275 -0.0135487 0.0620791
vertex 0.00737037 0.00506797 0.0620791
endloop
endfacet
facet normal 0.998894 0.00280505 0.046944
outer loop
vertex 0.00743621 -0.0135759 0.0623655
vertex 0.00737704 0.0050972 0.0622223
vertex 0.00738369 0.00512642 0.0623655
endloop
endfacet
facet normal 0.99891 0.00280784 0.0465873
outer loop
vertex 0.00743621 -0.0135759 0.0623655
vertex 0.00742949 -0.0135623 0.0622223
vertex 0.00737704 0.0050972 0.0622223
endloop
endfacet
facet normal 0.998904 0.00280233 0.0467268
outer loop
vertex 0.0074429 -0.0135895 0.0625087
vertex 0.00738369 0.00512642 0.0623655
vertex 0.00739031 0.00515562 0.0625087
endloop
endfacet
facet normal 0.99892 0.00280512 0.0463692
outer loop
vertex 0.0074429 -0.0135895 0.0625087
vertex 0.00743621 -0.0135759 0.0623655
vertex 0.00738369 0.00512642 0.0623655
endloop
endfacet
facet normal 0.998914 0.00279962 0.0465107
outer loop
vertex 0.00744955 -0.0136031 0.0626519
vertex 0.00739031 0.00515562 0.0625087
vertex 0.0073969 0.0051848 0.0626519
endloop
endfacet
facet normal 0.99893 0.00280241 0.0461522
outer loop
vertex 0.00744955 -0.0136031 0.0626519
vertex 0.0074429 -0.0135895 0.0625087
vertex 0.00739031 0.00515562 0.0625087
endloop
endfacet
facet normal 0.998924 0.0027969 0.0462958
outer loop
vertex 0.00745618 -0.0136168 0.0627951
vertex 0.0073969 0.0051848 0.0626519
vertex 0.00740345 0.00521396 0.0627951
endloop
endfacet
facet normal 0.99894 0.00279969 0.0459363
outer loop
vertex 0.00745618 -0.0136168 0.0627951
vertex 0.00744955 -0.0136031 0.0626519
vertex 0.0073969 0.0051848 0.0626519
endloop
endfacet
facet normal 0.998934 0.00279419 0.0460819
outer loop
vertex 0.00746277 -0.0136304 0.0629383
vertex 0.00740345 0.00521396 0.0627951
vertex 0.00740998 0.0052431 0.0629383
endloop
endfacet
facet normal 0.99895 0.00279698 0.0457215
outer loop
vertex 0.00746277 -0.0136304 0.0629383
vertex 0.00745618 -0.0136168 0.0627951
vertex 0.00740345 0.00521396 0.0627951
endloop
endfacet
facet normal 0.998944 0.00279147 0.0458692
outer loop
vertex 0.00746933 -0.0136441 0.0630816
vertex 0.00740998 0.0052431 0.0629383
vertex 0.00741647 0.00527223 0.0630816
endloop
endfacet
facet normal 0.99896 0.00279426 0.0455079
outer loop
vertex 0.00746933 -0.0136441 0.0630816
vertex 0.00746277 -0.0136304 0.0629383
vertex 0.00740998 0.0052431 0.0629383
endloop
endfacet
facet normal 0.998953 0.00278875 0.0456576
outer loop
vertex 0.00747586 -0.0136578 0.0632248
vertex 0.00741647 0.00527223 0.0630816
vertex 0.00742294 0.00530135 0.0632248
endloop
endfacet
facet normal 0.99897 0.00279154 0.0452954
outer loop
vertex 0.00747586 -0.0136578 0.0632248
vertex 0.00746933 -0.0136441 0.0630816
vertex 0.00741647 0.00527223 0.0630816
endloop
endfacet
facet normal 0.998963 0.00278603 0.0454471
outer loop
vertex 0.00748236 -0.0136715 0.063368
vertex 0.00742294 0.00530135 0.0632248
vertex 0.00742937 0.00533044 0.063368
endloop
endfacet
facet normal 0.998979 0.00278882 0.0450839
outer loop
vertex 0.00748236 -0.0136715 0.063368
vertex 0.00747586 -0.0136578 0.0632248
vertex 0.00742294 0.00530135 0.0632248
endloop
endfacet
facet normal 0.998972 0.00278331 0.0452377
outer loop
vertex 0.00748884 -0.0136853 0.0635112
vertex 0.00742937 0.00533044 0.063368
vertex 0.00743577 0.00535952 0.0635112
endloop
endfacet
facet normal 0.998989 0.0027861 0.0448736
outer loop
vertex 0.00748884 -0.0136853 0.0635112
vertex 0.00748236 -0.0136715 0.063368
vertex 0.00742937 0.00533044 0.063368
endloop
endfacet
facet normal 0.998982 0.00278059 0.0450293
outer loop
vertex 0.00749528 -0.013699 0.0636544
vertex 0.00743577 0.00535952 0.0635112
vertex 0.00744215 0.00538858 0.0636544
endloop
endfacet
facet normal 0.998998 0.00278338 0.0446644
outer loop
vertex 0.00749528 -0.013699 0.0636544
vertex 0.00748884 -0.0136853 0.0635112
vertex 0.00743577 0.00535952 0.0635112
endloop
endfacet
facet normal 0.998991 0.00277786 0.0448221
outer loop
vertex 0.00750169 -0.0137128 0.0637976
vertex 0.00744215 0.00538858 0.0636544
vertex 0.00744849 0.00541762 0.0637976
endloop
endfacet
facet normal 0.999007 0.00278066 0.0444563
outer loop
vertex 0.00750169 -0.0137128 0.0637976
vertex 0.00749528 -0.013699 0.0636544
vertex 0.00744215 0.00538858 0.0636544
endloop
endfacet
facet normal 0.999 0.00277514 0.0446159
outer loop
vertex 0.00750807 -0.0137265 0.0639408
vertex 0.00744849 0.00541762 0.0637976
vertex 0.00745481 0.00544665 0.0639408
endloop
endfacet
facet normal 0.999017 0.00277794 0.0442492
outer loop
vertex 0.00750807 -0.0137265 0.0639408
vertex 0.00750169 -0.0137128 0.0637976
vertex 0.00744849 0.00541762 0.0637976
endloop
endfacet
facet normal 0.99901 0.00277242 0.0444109
outer loop
vertex 0.00751442 -0.0137403 0.064084
vertex 0.00745481 0.00544665 0.0639408
vertex 0.00746109 0.00547566 0.064084
endloop
endfacet
facet normal 0.999026 0.00277521 0.0440432
outer loop
vertex 0.00751442 -0.0137403 0.064084
vertex 0.00750807 -0.0137265 0.0639408
vertex 0.00745481 0.00544665 0.0639408
endloop
endfacet
facet normal 0.999019 0.00276969 0.0442068
outer loop
vertex 0.00752074 -0.0137542 0.0642272
vertex 0.00746109 0.00547566 0.064084
vertex 0.00746735 0.00550465 0.0642272
endloop
endfacet
facet normal 0.999035 0.00277249 0.0438384
outer loop
vertex 0.00752074 -0.0137542 0.0642272
vertex 0.00751442 -0.0137403 0.064084
vertex 0.00746109 0.00547566 0.064084
endloop
endfacet
facet normal 0.999028 0.00276697 0.0440039
outer loop
vertex 0.00752704 -0.013768 0.0643704
vertex 0.00746735 0.00550465 0.0642272
vertex 0.00747358 0.00553363 0.0643704
endloop
endfacet
facet normal 0.999044 0.00276976 0.0436345
outer loop
vertex 0.00752704 -0.013768 0.0643704
vertex 0.00752074 -0.0137542 0.0642272
vertex 0.00746735 0.00550465 0.0642272
endloop
endfacet
facet normal 0.999036 0.00276424 0.043802
outer loop
vertex 0.0075333 -0.0137818 0.0645136
vertex 0.00747358 0.00553363 0.0643704
vertex 0.00747978 0.00556259 0.0645136
endloop
endfacet
facet normal 0.999053 0.00276704 0.0434318
outer loop
vertex 0.0075333 -0.0137818 0.0645136
vertex 0.00752704 -0.013768 0.0643704
vertex 0.00747358 0.00553363 0.0643704
endloop
endfacet
facet normal 0.999045 0.00276152 0.0436012
outer loop
vertex 0.00753954 -0.0137957 0.0646569
vertex 0.00747978 0.00556259 0.0645136
vertex 0.00748595 0.00559153 0.0646569
endloop
endfacet
facet normal 0.999061 0.00276431 0.0432301
outer loop
vertex 0.00753954 -0.0137957 0.0646569
vertex 0.0075333 -0.0137818 0.0645136
vertex 0.00747978 0.00556259 0.0645136
endloop
endfacet
facet normal 0.999054 0.00275879 0.0434014
outer loop
vertex 0.00754574 -0.0138096 0.0648001
vertex 0.00748595 0.00559153 0.0646569
vertex 0.00749209 0.00562046 0.0648001
endloop
endfacet
facet normal 0.99907 0.00276158 0.0430295
outer loop
vertex 0.00754574 -0.0138096 0.0648001
vertex 0.00753954 -0.0137957 0.0646569
vertex 0.00748595 0.00559153 0.0646569
endloop
endfacet
facet normal 0.999063 0.00275606 0.0432027
outer loop
vertex 0.00755192 -0.0138235 0.0649433
vertex 0.00749209 0.00562046 0.0648001
vertex 0.0074982 0.00564937 0.0649433
endloop
endfacet
facet normal 0.999079 0.00275886 0.0428299
outer loop
vertex 0.00755192 -0.0138235 0.0649433
vertex 0.00754574 -0.0138096 0.0648001
vertex 0.00749209 0.00562046 0.0648001
endloop
endfacet
facet normal 0.999071 0.00275333 0.043005
outer loop
vertex 0.00755807 -0.0138374 0.0650865
vertex 0.0074982 0.00564937 0.0649433
vertex 0.00750429 0.00567826 0.0650865
endloop
endfacet
facet normal 0.999087 0.00275613 0.0426313
outer loop
vertex 0.00755807 -0.0138374 0.0650865
vertex 0.00755192 -0.0138235 0.0649433
vertex 0.0074982 0.00564937 0.0649433
endloop
endfacet
facet normal 0.99908 0.00275061 0.0428083
outer loop
vertex 0.00756419 -0.0138513 0.0652297
vertex 0.00750429 0.00567826 0.0650865
vertex 0.00751034 0.00570714 0.0652297
endloop
endfacet
facet normal 0.999095 0.0027534 0.0424338
outer loop
vertex 0.00756419 -0.0138513 0.0652297
vertex 0.00755807 -0.0138374 0.0650865
vertex 0.00750429 0.00567826 0.0650865
endloop
endfacet
facet normal 0.999088 0.00274788 0.0426127
outer loop
vertex 0.00757028 -0.0138653 0.0653729
vertex 0.00751034 0.00570714 0.0652297
vertex 0.00751637 0.005736 0.0653729
endloop
endfacet
facet normal 0.999104 0.00275067 0.0422373
outer loop
vertex 0.00757028 -0.0138653 0.0653729
vertex 0.00756419 -0.0138513 0.0652297
vertex 0.00751034 0.00570714 0.0652297
endloop
endfacet
facet normal 0.999096 0.00274515 0.0424181
outer loop
vertex 0.00757635 -0.0138792 0.0655161
vertex 0.00751637 0.005736 0.0653729
vertex 0.00752237 0.00576484 0.0655161
endloop
endfacet
facet normal 0.999112 0.00274795 0.0420419
outer loop
vertex 0.00757635 -0.0138792 0.0655161
vertex 0.00757028 -0.0138653 0.0653729
vertex 0.00751637 0.005736 0.0653729
endloop
endfacet
facet normal 0.999104 0.00274242 0.0422245
outer loop
vertex 0.00758238 -0.0138932 0.0656593
vertex 0.00752237 0.00576484 0.0655161
vertex 0.00752835 0.00579367 0.0656593
endloop
endfacet
facet normal 0.99912 0.00274522 0.0418475
outer loop
vertex 0.00758238 -0.0138932 0.0656593
vertex 0.00757635 -0.0138792 0.0655161
vertex 0.00752237 0.00576484 0.0655161
endloop
endfacet
facet normal 0.999113 0.00273969 0.0420319
outer loop
vertex 0.00758839 -0.0139072 0.0658025
vertex 0.00752835 0.00579367 0.0656593
vertex 0.00753429 0.00582247 0.0658025
endloop
endfacet
facet normal 0.999128 0.00274249 0.0416541
outer loop
vertex 0.00758839 -0.0139072 0.0658025
vertex 0.00758238 -0.0138932 0.0656593
vertex 0.00752835 0.00579367 0.0656593
endloop
endfacet
facet normal 0.999121 0.00273696 0.0418404
outer loop
vertex 0.00759437 -0.0139212 0.0659457
vertex 0.00753429 0.00582247 0.0658025
vertex 0.00754021 0.00585127 0.0659457
endloop
endfacet
facet normal 0.999136 0.00273976 0.0414617
outer loop
vertex 0.00759437 -0.0139212 0.0659457
vertex 0.00758839 -0.0139072 0.0658025
vertex 0.00753429 0.00582247 0.0658025
endloop
endfacet
facet normal 0.999129 0.00273423 0.0416498
outer loop
vertex 0.00760033 -0.0139352 0.0660889
vertex 0.00754021 0.00585127 0.0659457
vertex 0.0075461 0.00588004 0.0660889
endloop
endfacet
facet normal 0.999144 0.00273703 0.0412703
outer loop
vertex 0.00760033 -0.0139352 0.0660889
vertex 0.00759437 -0.0139212 0.0659457
vertex 0.00754021 0.00585127 0.0659457
endloop
endfacet
facet normal 0.999136 0.0027315 0.0414603
outer loop
vertex 0.00760625 -0.0139493 0.0662322
vertex 0.0075461 0.00588004 0.0660889
vertex 0.00755196 0.0059088 0.0662322
endloop
endfacet
facet normal 0.999152 0.0027343 0.04108
outer loop
vertex 0.00760625 -0.0139493 0.0662322
vertex 0.00760033 -0.0139352 0.0660889
vertex 0.0075461 0.00588004 0.0660889
endloop
endfacet
facet normal 0.999144 0.00272877 0.0412717
outer loop
vertex 0.00761215 -0.0139634 0.0663754
vertex 0.00755196 0.0059088 0.0662322
vertex 0.0075578 0.00593755 0.0663754
endloop
endfacet
facet normal 0.99916 0.00273157 0.0408906
outer loop
vertex 0.00761215 -0.0139634 0.0663754
vertex 0.00760625 -0.0139493 0.0662322
vertex 0.00755196 0.0059088 0.0662322
endloop
endfacet
facet normal 0.999152 0.00272604 0.0410841
outer loop
vertex 0.00761803 -0.0139774 0.0665186
vertex 0.0075578 0.00593755 0.0663754
vertex 0.00756361 0.00596627 0.0665186
endloop
endfacet
facet normal 0.999168 0.00272884 0.0407022
outer loop
vertex 0.00761803 -0.0139774 0.0665186
vertex 0.00761215 -0.0139634 0.0663754
vertex 0.0075578 0.00593755 0.0663754
endloop
endfacet
facet normal 0.99916 0.00272331 0.0408975
outer loop
vertex 0.00762387 -0.0139915 0.0666618
vertex 0.00756361 0.00596627 0.0665186
vertex 0.0075694 0.00599498 0.0666618
endloop
endfacet
facet normal 0.999175 0.00272611 0.0405148
outer loop
vertex 0.00762387 -0.0139915 0.0666618
vertex 0.00761803 -0.0139774 0.0665186
vertex 0.00756361 0.00596627 0.0665186
endloop
endfacet
facet normal 0.999167 0.00272058 0.0407119
outer loop
vertex 0.00762969 -0.0140056 0.066805
vertex 0.0075694 0.00599498 0.0666618
vertex 0.00757515 0.00602367 0.066805
endloop
endfacet
facet normal 0.999183 0.00272338 0.0403284
outer loop
vertex 0.00762969 -0.0140056 0.066805
vertex 0.00762387 -0.0139915 0.0666618
vertex 0.0075694 0.00599498 0.0666618
endloop
endfacet
facet normal 0.999175 0.00271785 0.0405273
outer loop
vertex 0.00763548 -0.0140198 0.0669482
vertex 0.00757515 0.00602367 0.066805
vertex 0.00758088 0.00605235 0.0669482
endloop
endfacet
facet normal 0.99919 0.00272065 0.040143
outer loop
vertex 0.00763548 -0.0140198 0.0669482
vertex 0.00762969 -0.0140056 0.066805
vertex 0.00757515 0.00602367 0.066805
endloop
endfacet
facet normal 0.999182 0.00271512 0.0403436
outer loop
vertex 0.00764125 -0.0140339 0.0670914
vertex 0.00758088 0.00605235 0.0669482
vertex 0.00758659 0.00608101 0.0670914
endloop
endfacet
facet normal 0.999198 0.00271792 0.0399585
outer loop
vertex 0.00764125 -0.0140339 0.0670914
vertex 0.00763548 -0.0140198 0.0669482
vertex 0.00758088 0.00605235 0.0669482
endloop
endfacet
facet normal 0.99919 0.00271239 0.0401609
outer loop
vertex 0.00764699 -0.0140481 0.0672346
vertex 0.00758659 0.00608101 0.0670914
vertex 0.00759227 0.00610966 0.0672346
endloop
endfacet
facet normal 0.999205 0.00271519 0.039775
outer loop
vertex 0.00764699 -0.0140481 0.0672346
vertex 0.00764125 -0.0140339 0.0670914
vertex 0.00758659 0.00608101 0.0670914
endloop
endfacet
facet normal 0.999197 0.00270967 0.0399791
outer loop
vertex 0.0076527 -0.0140623 0.0673778
vertex 0.00759227 0.00610966 0.0672346
vertex 0.00759792 0.00613828 0.0673778
endloop
endfacet
facet normal 0.999212 0.00271246 0.0395925
outer loop
vertex 0.0076527 -0.0140623 0.0673778
vertex 0.00764699 -0.0140481 0.0672346
vertex 0.00759227 0.00610966 0.0672346
endloop
endfacet
facet normal 0.999204 0.00270694 0.0397983
outer loop
vertex 0.00765839 -0.0140765 0.067521
vertex 0.00759792 0.00613828 0.0673778
vertex 0.00760355 0.00616689 0.067521
endloop
endfacet
facet normal 0.999219 0.00270973 0.0394109
outer loop
vertex 0.00765839 -0.0140765 0.067521
vertex 0.0076527 -0.0140623 0.0673778
vertex 0.00759792 0.00613828 0.0673778
endloop
endfacet
facet normal 0.999211 0.00270421 0.0396185
outer loop
vertex 0.00766405 -0.0140907 0.0676643
vertex 0.00760355 0.00616689 0.067521
vertex 0.00760915 0.00619549 0.0676643
endloop
endfacet
facet normal 0.999227 0.002707 0.0392303
outer loop
vertex 0.00766405 -0.0140907 0.0676643
vertex 0.00765839 -0.0140765 0.067521
vertex 0.00760355 0.00616689 0.067521
endloop
endfacet
facet normal 0.999218 0.00270148 0.0394396
outer loop
vertex 0.00766968 -0.0141049 0.0678075
vertex 0.00760915 0.00619549 0.0676643
vertex 0.00761472 0.00622407 0.0678075
endloop
endfacet
facet normal 0.999234 0.00270427 0.0390506
outer loop
vertex 0.00766968 -0.0141049 0.0678075
vertex 0.00766405 -0.0140907 0.0676643
vertex 0.00760915 0.00619549 0.0676643
endloop
endfacet
facet normal 0.999225 0.00269875 0.0392616
outer loop
vertex 0.00767529 -0.0141191 0.0679507
vertex 0.00761472 0.00622407 0.0678075
vertex 0.00762027 0.00625263 0.0679507
endloop
endfacet
facet normal 0.999241 0.00270154 0.0388719
outer loop
vertex 0.00767529 -0.0141191 0.0679507
vertex 0.00766968 -0.0141049 0.0678075
vertex 0.00761472 0.00622407 0.0678075
endloop
endfacet
facet normal 0.999232 0.00269602 0.0390846
outer loop
vertex 0.00768088 -0.0141334 0.0680939
vertex 0.00762027 0.00625263 0.0679507
vertex 0.0076258 0.00628118 0.0680939
endloop
endfacet
facet normal 0.999247 0.00269881 0.0386941
outer loop
vertex 0.00768088 -0.0141334 0.0680939
vertex 0.00767529 -0.0141191 0.0679507
vertex 0.00762027 0.00625263 0.0679507
endloop
endfacet
facet normal 0.999239 0.00269329 0.0389085
outer loop
vertex 0.00768643 -0.0141477 0.0682371
vertex 0.0076258 0.00628118 0.0680939
vertex 0.0076313 0.00630971 0.0682371
endloop
endfacet
facet normal 0.999254 0.00269608 0.0385172
outer loop
vertex 0.00768643 -0.0141477 0.0682371
vertex 0.00768088 -0.0141334 0.0680939
vertex 0.0076258 0.00628118 0.0680939
endloop
endfacet
facet normal 0.999246 0.00269056 0.0387333
outer loop
vertex 0.00769197 -0.014162 0.0683803
vertex 0.0076313 0.00630971 0.0682371
vertex 0.00763677 0.00633822 0.0683803
endloop
endfacet
facet normal 0.999261 0.00269335 0.0383413
outer loop
vertex 0.00769197 -0.014162 0.0683803
vertex 0.00768643 -0.0141477 0.0682371
vertex 0.0076313 0.00630971 0.0682371
endloop
endfacet
facet normal 0.999253 0.00268784 0.038559
outer loop
vertex 0.00769748 -0.0141763 0.0685235
vertex 0.00763677 0.00633822 0.0683803
vertex 0.00764222 0.00636672 0.0685235
endloop
endfacet
facet normal 0.999268 0.00269062 0.0381663
outer loop
vertex 0.00769748 -0.0141763 0.0685235
vertex 0.00769197 -0.014162 0.0683803
vertex 0.00763677 0.00633822 0.0683803
endloop
endfacet
facet normal 0.999259 0.00268511 0.0383857
outer loop
vertex 0.00770296 -0.0141906 0.0686667
vertex 0.00764222 0.00636672 0.0685235
vertex 0.00764764 0.0063952 0.0686667
endloop
endfacet
facet normal 0.999274 0.0026879 0.0379922
outer loop
vertex 0.00770296 -0.0141906 0.0686667
vertex 0.00769748 -0.0141763 0.0685235
vertex 0.00764222 0.00636672 0.0685235
endloop
endfacet
facet normal 0.999266 0.00268238 0.0382132
outer loop
vertex 0.00770842 -0.0142049 0.0688099
vertex 0.00764764 0.0063952 0.0686667
vertex 0.00765304 0.00642366 0.0688099
endloop
endfacet
facet normal 0.999281 0.00268517 0.037819
outer loop
vertex 0.00770842 -0.0142049 0.0688099
vertex 0.00770296 -0.0141906 0.0686667
vertex 0.00764764 0.0063952 0.0686667
endloop
endfacet
facet normal 0.999273 0.00267966 0.0380417
outer loop
vertex 0.00771385 -0.0142193 0.0689531
vertex 0.00765304 0.00642366 0.0688099
vertex 0.00765842 0.00645211 0.0689531
endloop
endfacet
facet normal 0.999288 0.00268244 0.0376468
outer loop
vertex 0.00771385 -0.0142193 0.0689531
vertex 0.00770842 -0.0142049 0.0688099
vertex 0.00765304 0.00642366 0.0688099
endloop
endfacet
facet normal 0.999279 0.00267693 0.037871
outer loop
vertex 0.00771926 -0.0142337 0.0690963
vertex 0.00765842 0.00645211 0.0689531
vertex 0.00766377 0.00648055 0.0690963
endloop
endfacet
facet normal 0.999294 0.00267972 0.0374754
outer loop
vertex 0.00771926 -0.0142337 0.0690963
vertex 0.00771385 -0.0142193 0.0689531
vertex 0.00765842 0.00645211 0.0689531
endloop
endfacet
facet normal 0.999285 0.00267421 0.0377013
outer loop
vertex 0.00772465 -0.0142481 0.0692396
vertex 0.00766377 0.00648055 0.0690963
vertex 0.0076691 0.00650896 0.0692396
endloop
endfacet
facet normal 0.9993 0.00267699 0.037305
outer loop
vertex 0.00772465 -0.0142481 0.0692396
vertex 0.00771926 -0.0142337 0.0690963
vertex 0.00766377 0.00648055 0.0690963
endloop
endfacet
facet normal 0.999292 0.00267148 0.0375324
outer loop
vertex 0.00773001 -0.0142625 0.0693828
vertex 0.0076691 0.00650896 0.0692396
vertex 0.0076744 0.00653736 0.0693828
endloop
endfacet
facet normal 0.999307 0.00267426 0.0371354
outer loop
vertex 0.00773001 -0.0142625 0.0693828
vertex 0.00772465 -0.0142481 0.0692396
vertex 0.0076691 0.00650896 0.0692396
endloop
endfacet
facet normal 0.999298 0.00266876 0.0373645
outer loop
vertex 0.00773534 -0.0142769 0.069526
vertex 0.0076744 0.00653736 0.0693828
vertex 0.00767968 0.00656575 0.069526
endloop
endfacet
facet normal 0.999313 0.00267154 0.0369667
outer loop
vertex 0.00773534 -0.0142769 0.069526
vertex 0.00773001 -0.0142625 0.0693828
vertex 0.0076744 0.00653736 0.0693828
endloop
endfacet
facet normal 0.999304 0.00266604 0.0371974
outer loop
vertex 0.00774065 -0.0142913 0.0696692
vertex 0.00767968 0.00656575 0.069526
vertex 0.00768493 0.00659412 0.0696692
endloop
endfacet
facet normal 0.999319 0.00266882 0.0367989
outer loop
vertex 0.00774065 -0.0142913 0.0696692
vertex 0.00773534 -0.0142769 0.069526
vertex 0.00767968 0.00656575 0.069526
endloop
endfacet
facet normal 0.999311 0.00266331 0.0370312
outer loop
vertex 0.00774594 -0.0143058 0.0698124
vertex 0.00768493 0.00659412 0.0696692
vertex 0.00769017 0.00662247 0.0698124
endloop
endfacet
facet normal 0.999325 0.00266609 0.036632
outer loop
vertex 0.00774594 -0.0143058 0.0698124
vertex 0.00774065 -0.0142913 0.0696692
vertex 0.00768493 0.00659412 0.0696692
endloop
endfacet
facet normal 0.999317 0.00266059 0.0368658
outer loop
vertex 0.00775121 -0.0143203 0.0699556
vertex 0.00769017 0.00662247 0.0698124
vertex 0.00769537 0.00665081 0.0699556
endloop
endfacet
facet normal 0.999331 0.00266337 0.036466
outer loop
vertex 0.00775121 -0.0143203 0.0699556
vertex 0.00774594 -0.0143058 0.0698124
vertex 0.00769017 0.00662247 0.0698124
endloop
endfacet
facet normal 0.999323 0.00265787 0.0367014
outer loop
vertex 0.00775645 -0.0143347 0.0700988
vertex 0.00769537 0.00665081 0.0699556
vertex 0.00770056 0.00667913 0.0700988
endloop
endfacet
facet normal 0.999337 0.00266065 0.0363008
outer loop
vertex 0.00775645 -0.0143347 0.0700988
vertex 0.00775121 -0.0143203 0.0699556
vertex 0.00769537 0.00665081 0.0699556
endloop
endfacet
facet normal 0.999329 0.00265515 0.0365378
outer loop
vertex 0.00776166 -0.0143492 0.070242
vertex 0.00770056 0.00667913 0.0700988
vertex 0.00770572 0.00670743 0.070242
endloop
endfacet
facet normal 0.999343 0.00265793 0.0361365
outer loop
vertex 0.00776166 -0.0143492 0.070242
vertex 0.00775645 -0.0143347 0.0700988
vertex 0.00770056 0.00667913 0.0700988
endloop
endfacet
facet normal 0.999335 0.00265243 0.036375
outer loop
vertex 0.00776686 -0.0143638 0.0703852
vertex 0.00770572 0.00670743 0.070242
vertex 0.00771086 0.00673572 0.0703852
endloop
endfacet
facet normal 0.999349 0.00265521 0.0359731
outer loop
vertex 0.00776686 -0.0143638 0.0703852
vertex 0.00776166 -0.0143492 0.070242
vertex 0.00770572 0.00670743 0.070242
endloop
endfacet
facet normal 0.999341 0.00264971 0.0362131
outer loop
vertex 0.00777203 -0.0143783 0.0705284
vertex 0.00771086 0.00673572 0.0703852
vertex 0.00771597 0.006764 0.0705284
endloop
endfacet
facet normal 0.999355 0.00265249 0.0358105
outer loop
vertex 0.00777203 -0.0143783 0.0705284
vertex 0.00776686 -0.0143638 0.0703852
vertex 0.00771086 0.00673572 0.0703852
endloop
endfacet
facet normal 0.999346 0.002647 0.036052
outer loop
vertex 0.00777718 -0.0143928 0.0706717
vertex 0.00771597 0.006764 0.0705284
vertex 0.00772106 0.00679225 0.0706717
endloop
endfacet
facet normal 0.999361 0.00264977 0.0356488
outer loop
vertex 0.00777718 -0.0143928 0.0706717
vertex 0.00777203 -0.0143783 0.0705284
vertex 0.00771597 0.006764 0.0705284
endloop
endfacet
facet normal 0.999352 0.00264428 0.0358918
outer loop
vertex 0.0077823 -0.0144074 0.0708149
vertex 0.00772106 0.00679225 0.0706717
vertex 0.00772613 0.0068205 0.0708149
endloop
endfacet
facet normal 0.999367 0.00264705 0.0354879
outer loop
vertex 0.0077823 -0.0144074 0.0708149
vertex 0.00777718 -0.0143928 0.0706717
vertex 0.00772106 0.00679225 0.0706717
endloop
endfacet
facet normal 0.999358 0.00264156 0.0357325
outer loop
vertex 0.0077874 -0.014422 0.0709581
vertex 0.00772613 0.0068205 0.0708149
vertex 0.00773118 0.00684872 0.0709581
endloop
endfacet
facet normal 0.999372 0.00264433 0.0353278
outer loop
vertex 0.0077874 -0.014422 0.0709581
vertex 0.0077823 -0.0144074 0.0708149
vertex 0.00772613 0.0068205 0.0708149
endloop
endfacet
facet normal 0.999364 0.00263885 0.0355739
outer loop
vertex 0.00779248 -0.0144366 0.0711013
vertex 0.00773118 0.00684872 0.0709581
vertex 0.0077362 0.00687693 0.0711013
endloop
endfacet
facet normal 0.999378 0.00264162 0.0351686
outer loop
vertex 0.00779248 -0.0144366 0.0711013
vertex 0.0077874 -0.014422 0.0709581
vertex 0.00773118 0.00684872 0.0709581
endloop
endfacet
facet normal 0.999369 0.00263613 0.0354162
outer loop
vertex 0.00779753 -0.0144512 0.0712445
vertex 0.0077362 0.00687693 0.0711013
vertex 0.0077412 0.00690513 0.0712445
endloop
endfacet
facet normal 0.999383 0.0026389 0.0350103
outer loop
vertex 0.00779753 -0.0144512 0.0712445
vertex 0.00779248 -0.0144366 0.0711013
vertex 0.0077362 0.00687693 0.0711013
endloop
endfacet
facet normal 0.999375 0.00263342 0.0352593
outer loop
vertex 0.00780257 -0.0144658 0.0713877
vertex 0.0077412 0.00690513 0.0712445
vertex 0.00774618 0.00693331 0.0713877
endloop
endfacet
facet normal 0.999389 0.00263619 0.0348527
outer loop
vertex 0.00780257 -0.0144658 0.0713877
vertex 0.00779753 -0.0144512 0.0712445
vertex 0.0077412 0.00690513 0.0712445
endloop
endfacet
facet normal 0.99938 0.00263071 0.0351033
outer loop
vertex 0.00780758 -0.0144805 0.0715309
vertex 0.00774618 0.00693331 0.0713877
vertex 0.00775114 0.00696147 0.0715309
endloop
endfacet
facet normal 0.999394 0.00263347 0.034696
outer loop
vertex 0.00780758 -0.0144805 0.0715309
vertex 0.00780257 -0.0144658 0.0713877
vertex 0.00774618 0.00693331 0.0713877
endloop
endfacet
facet normal 0.999386 0.002628 0.034948
outer loop
vertex 0.00781257 -0.0144951 0.0716741
vertex 0.00775114 0.00696147 0.0715309
vertex 0.00775607 0.00698962 0.0716741
endloop
endfacet
facet normal 0.9994 0.00263076 0.0345401
outer loop
vertex 0.00781257 -0.0144951 0.0716741
vertex 0.00780758 -0.0144805 0.0715309
vertex 0.00775114 0.00696147 0.0715309
endloop
endfacet
facet normal 0.999391 0.00262529 0.0347936
outer loop
vertex 0.00781753 -0.0145098 0.0718173
vertex 0.00775607 0.00698962 0.0716741
vertex 0.00776098 0.00701775 0.0718173
endloop
endfacet
facet normal 0.999405 0.00262805 0.0343851
outer loop
vertex 0.00781753 -0.0145098 0.0718173
vertex 0.00781257 -0.0144951 0.0716741
vertex 0.00775607 0.00698962 0.0716741
endloop
endfacet
facet normal 0.999396 0.00262258 0.0346399
outer loop
vertex 0.00782248 -0.0145245 0.0719605
vertex 0.00776098 0.00701775 0.0718173
vertex 0.00776587 0.00704587 0.0719605
endloop
endfacet
facet normal 0.999411 0.00262534 0.0342308
outer loop
vertex 0.00782248 -0.0145245 0.0719605
vertex 0.00781753 -0.0145098 0.0718173
vertex 0.00776098 0.00701775 0.0718173
endloop
endfacet
facet normal 0.999402 0.00261987 0.0344871
outer loop
vertex 0.0078274 -0.0145392 0.0721037
vertex 0.00776587 0.00704587 0.0719605
vertex 0.00777074 0.00707397 0.0721037
endloop
endfacet
facet normal 0.999416 0.00262263 0.0340773
outer loop
vertex 0.0078274 -0.0145392 0.0721037
vertex 0.00782248 -0.0145245 0.0719605
vertex 0.00776587 0.00704587 0.0719605
endloop
endfacet
facet normal 0.999407 0.00261716 0.0343351
outer loop
vertex 0.0078323 -0.0145539 0.072247
vertex 0.00777074 0.00707397 0.0721037
vertex 0.00777559 0.00710206 0.072247
endloop
endfacet
facet normal 0.999421 0.00261992 0.0339247
outer loop
vertex 0.0078323 -0.0145539 0.072247
vertex 0.0078274 -0.0145392 0.0721037
vertex 0.00777074 0.00707397 0.0721037
endloop
endfacet
facet normal 0.999412 0.00261446 0.0341839
outer loop
vertex 0.00783717 -0.0145686 0.0723902
vertex 0.00777559 0.00710206 0.072247
vertex 0.00778041 0.00713013 0.0723902
endloop
endfacet
facet normal 0.999426 0.00261721 0.0337728
outer loop
vertex 0.00783717 -0.0145686 0.0723902
vertex 0.0078323 -0.0145539 0.072247
vertex 0.00777559 0.00710206 0.072247
endloop
endfacet
facet normal 0.999417 0.00261175 0.0340334
outer loop
vertex 0.00784203 -0.0145834 0.0725334
vertex 0.00778041 0.00713013 0.0723902
vertex 0.00778521 0.00715819 0.0725334
endloop
endfacet
facet normal 0.999431 0.00261451 0.0336218
outer loop
vertex 0.00784203 -0.0145834 0.0725334
vertex 0.00783717 -0.0145686 0.0723902
vertex 0.00778041 0.00713013 0.0723902
endloop
endfacet
facet normal 0.999422 0.00260905 0.0338838
outer loop
vertex 0.00784687 -0.0145981 0.0726766
vertex 0.00778521 0.00715819 0.0725334
vertex 0.00779 0.00718623 0.0726766
endloop
endfacet
facet normal 0.999436 0.0026118 0.0334715
outer loop
vertex 0.00784687 -0.0145981 0.0726766
vertex 0.00784203 -0.0145834 0.0725334
vertex 0.00778521 0.00715819 0.0725334
endloop
endfacet
facet normal 0.999427 0.00260635 0.0337349
outer loop
vertex 0.00785168 -0.0146129 0.0728198
vertex 0.00779 0.00718623 0.0726766
vertex 0.00779476 0.00721425 0.0728198
endloop
endfacet
facet normal 0.999441 0.0026091 0.033322
outer loop
vertex 0.00785168 -0.0146129 0.0728198
vertex 0.00784687 -0.0145981 0.0726766
vertex 0.00779 0.00718623 0.0726766
endloop
endfacet
facet normal 0.999432 0.00260365 0.0335868
outer loop
vertex 0.00785647 -0.0146277 0.072963
vertex 0.00779476 0.00721425 0.0728198
vertex 0.0077995 0.00724226 0.072963
endloop
endfacet
facet normal 0.999446 0.0026064 0.0331733
outer loop
vertex 0.00785647 -0.0146277 0.072963
vertex 0.00785168 -0.0146129 0.0728198
vertex 0.00779476 0.00721425 0.0728198
endloop
endfacet
facet normal 0.999437 0.00260095 0.0334394
outer loop
vertex 0.00786124 -0.0146425 0.0731062
vertex 0.0077995 0.00724226 0.072963
vertex 0.00780422 0.00727026 0.0731062
endloop
endfacet
facet normal 0.999451 0.00260369 0.0330254
outer loop
vertex 0.00786124 -0.0146425 0.0731062
vertex 0.00785647 -0.0146277 0.072963
vertex 0.0077995 0.00724226 0.072963
endloop
endfacet
facet normal 0.999442 0.00259825 0.0332929
outer loop
vertex 0.00786599 -0.0146574 0.0732494
vertex 0.00780422 0.00727026 0.0731062
vertex 0.00780891 0.00729824 0.0732494
endloop
endfacet
facet normal 0.999456 0.00260099 0.0328782
outer loop
vertex 0.00786599 -0.0146574 0.0732494
vertex 0.00786124 -0.0146425 0.0731062
vertex 0.00780422 0.00727026 0.0731062
endloop
endfacet
facet normal 0.999447 0.00259555 0.0331471
outer loop
vertex 0.00787072 -0.0146722 0.0733926
vertex 0.00780891 0.00729824 0.0732494
vertex 0.00781359 0.0073262 0.0733926
endloop
endfacet
facet normal 0.999461 0.0025983 0.0327318
outer loop
vertex 0.00787072 -0.0146722 0.0733926
vertex 0.00786599 -0.0146574 0.0732494
vertex 0.00780891 0.00729824 0.0732494
endloop
endfacet
facet normal 0.999452 0.00259285 0.0330021
outer loop
vertex 0.00787543 -0.0146871 0.0735358
vertex 0.00781359 0.0073262 0.0733926
vertex 0.00781825 0.00735415 0.0735358
endloop
endfacet
facet normal 0.999466 0.0025956 0.0325862
outer loop
vertex 0.00787543 -0.0146871 0.0735358
vertex 0.00787072 -0.0146722 0.0733926
vertex 0.00781359 0.0073262 0.0733926
endloop
endfacet
facet normal 0.999457 0.00259016 0.0328578
outer loop
vertex 0.00788011 -0.0147019 0.0736791
vertex 0.00781825 0.00735415 0.0735358
vertex 0.00782288 0.00738208 0.0736791
endloop
endfacet
facet normal 0.99947 0.0025929 0.0324413
outer loop
vertex 0.00788011 -0.0147019 0.0736791
vertex 0.00787543 -0.0146871 0.0735358
vertex 0.00781825 0.00735415 0.0735358
endloop
endfacet
facet normal 0.999461 0.00258747 0.0327142
outer loop
vertex 0.00788478 -0.0147168 0.0738223
vertex 0.00782288 0.00738208 0.0736791
vertex 0.0078275 0.00741 0.0738223
endloop
endfacet
facet normal 0.999475 0.00259021 0.0322972
outer loop
vertex 0.00788478 -0.0147168 0.0738223
vertex 0.00788011 -0.0147019 0.0736791
vertex 0.00782288 0.00738208 0.0736791
endloop
endfacet
facet normal 0.999466 0.00258478 0.0325715
outer loop
vertex 0.00788943 -0.0147317 0.0739655
vertex 0.0078275 0.00741 0.0738223
vertex 0.00783209 0.00743791 0.0739655
endloop
endfacet
facet normal 0.99948 0.00258751 0.0321539
outer loop
vertex 0.00788943 -0.0147317 0.0739655
vertex 0.00788478 -0.0147168 0.0738223
vertex 0.0078275 0.00741 0.0738223
endloop
endfacet
facet normal 0.999471 0.00258208 0.0324294
outer loop
vertex 0.00789405 -0.0147466 0.0741087
vertex 0.00783209 0.00743791 0.0739655
vertex 0.00783667 0.00746579 0.0741087
endloop
endfacet
facet normal 0.999484 0.00258482 0.0320113
outer loop
vertex 0.00789405 -0.0147466 0.0741087
vertex 0.00788943 -0.0147317 0.0739655
vertex 0.00783209 0.00743791 0.0739655
endloop
endfacet
facet normal 0.999475 0.0025794 0.0322881
outer loop
vertex 0.00789866 -0.0147616 0.0742519
vertex 0.00783667 0.00746579 0.0741087
vertex 0.00784122 0.00749367 0.0742519
endloop
endfacet
facet normal 0.999489 0.00258213 0.0318694
outer loop
vertex 0.00789866 -0.0147616 0.0742519
vertex 0.00789405 -0.0147466 0.0741087
vertex 0.00783667 0.00746579 0.0741087
endloop
endfacet
facet normal 0.99948 0.00257671 0.0321476
outer loop
vertex 0.00790324 -0.0147765 0.0743951
vertex 0.00784122 0.00749367 0.0742519
vertex 0.00784576 0.00752153 0.0743951
endloop
endfacet
facet normal 0.999493 0.00257944 0.0317283
outer loop
vertex 0.00790324 -0.0147765 0.0743951
vertex 0.00789866 -0.0147616 0.0742519
vertex 0.00784122 0.00749367 0.0742519
endloop
endfacet
facet normal 0.999484 0.00257402 0.0320077
outer loop
vertex 0.00790781 -0.0147915 0.0745383
vertex 0.00784576 0.00752153 0.0743951
vertex 0.00785027 0.00754937 0.0745383
endloop
endfacet
facet normal 0.999498 0.00257675 0.0315879
outer loop
vertex 0.00790781 -0.0147915 0.0745383
vertex 0.00790324 -0.0147765 0.0743951
vertex 0.00784576 0.00752153 0.0743951
endloop
endfacet
facet normal 0.999489 0.00257134 0.0318686
outer loop
vertex 0.00791235 -0.0148065 0.0746815
vertex 0.00785027 0.00754937 0.0745383
vertex 0.00785476 0.0075772 0.0746815
endloop
endfacet
facet normal 0.999502 0.00257407 0.0314482
outer loop
vertex 0.00791235 -0.0148065 0.0746815
vertex 0.00790781 -0.0147915 0.0745383
vertex 0.00785027 0.00754937 0.0745383
endloop
endfacet
facet normal 0.999493 0.00256866 0.0317302
outer loop
vertex 0.00791687 -0.0148215 0.0748247
vertex 0.00785476 0.0075772 0.0746815
vertex 0.00785924 0.00760501 0.0748247
endloop
endfacet
facet normal 0.999506 0.00257138 0.0313093
outer loop
vertex 0.00791687 -0.0148215 0.0748247
vertex 0.00791235 -0.0148065 0.0746815
vertex 0.00785476 0.0075772 0.0746815
endloop
endfacet
facet normal 0.999498 0.00256598 0.0315926
outer loop
vertex 0.00792138 -0.0148365 0.0749679
vertex 0.00785924 0.00760501 0.0748247
vertex 0.0078637 0.00763281 0.0749679
endloop
endfacet
facet normal 0.999511 0.0025687 0.0311711
outer loop
vertex 0.00792138 -0.0148365 0.0749679
vertex 0.00791687 -0.0148215 0.0748247
vertex 0.00785924 0.00760501 0.0748247
endloop
endfacet
facet normal 0.999502 0.0025633 0.0314556
outer loop
vertex 0.00792586 -0.0148515 0.0751111
vertex 0.0078637 0.00763281 0.0749679
vertex 0.00786813 0.0076606 0.0751111
endloop
endfacet
facet normal 0.999515 0.00256602 0.0310336
outer loop
vertex 0.00792586 -0.0148515 0.0751111
vertex 0.00792138 -0.0148365 0.0749679
vertex 0.0078637 0.00763281 0.0749679
endloop
endfacet
facet normal 0.999506 0.00256062 0.0313194
outer loop
vertex 0.00793033 -0.0148665 0.0752544
vertex 0.00786813 0.0076606 0.0751111
vertex 0.00787255 0.00768837 0.0752544
endloop
endfacet
facet normal 0.999519 0.00256334 0.0308968
outer loop
vertex 0.00793033 -0.0148665 0.0752544
vertex 0.00792586 -0.0148515 0.0751111
vertex 0.00786813 0.0076606 0.0751111
endloop
endfacet
facet normal 0.99951 0.00255794 0.0311838
outer loop
vertex 0.00793478 -0.0148816 0.0753976
vertex 0.00787255 0.00768837 0.0752544
vertex 0.00787694 0.00771612 0.0753976
endloop
endfacet
facet normal 0.999523 0.00256066 0.0307607
outer loop
vertex 0.00793478 -0.0148816 0.0753976
vertex 0.00793033 -0.0148665 0.0752544
vertex 0.00787255 0.00768837 0.0752544
endloop
endfacet
facet normal 0.999515 0.00255527 0.031049
outer loop
vertex 0.0079392 -0.0148966 0.0755408
vertex 0.00787694 0.00771612 0.0753976
vertex 0.00788132 0.00774386 0.0755408
endloop
endfacet
facet normal 0.999528 0.00255799 0.0306254
outer loop
vertex 0.0079392 -0.0148966 0.0755408
vertex 0.00793478 -0.0148816 0.0753976
vertex 0.00787694 0.00771612 0.0753976
endloop
endfacet
facet normal 0.999519 0.00255259 0.0309149
outer loop
vertex 0.00794361 -0.0149117 0.075684
vertex 0.00788132 0.00774386 0.0755408
vertex 0.00788568 0.00777159 0.075684
endloop
endfacet
facet normal 0.999532 0.00255531 0.0304907
outer loop
vertex 0.00794361 -0.0149117 0.075684
vertex 0.0079392 -0.0148966 0.0755408
vertex 0.00788132 0.00774386 0.0755408
endloop
endfacet
facet normal 0.999523 0.00254992 0.0307814
outer loop
vertex 0.007948 -0.0149268 0.0758272
vertex 0.00788568 0.00777159 0.075684
vertex 0.00789002 0.0077993 0.0758272
endloop
endfacet
facet normal 0.999536 0.00255264 0.0303567
outer loop
vertex 0.007948 -0.0149268 0.0758272
vertex 0.00794361 -0.0149117 0.075684
vertex 0.00788568 0.00777159 0.075684
endloop
endfacet
facet normal 0.999527 0.00254725 0.0306487
outer loop
vertex 0.00795237 -0.0149419 0.0759704
vertex 0.00789002 0.0077993 0.0758272
vertex 0.00789434 0.007827 0.0759704
endloop
endfacet
facet normal 0.99954 0.00254997 0.0302235
outer loop
vertex 0.00795237 -0.0149419 0.0759704
vertex 0.007948 -0.0149268 0.0758272
vertex 0.00789002 0.0077993 0.0758272
endloop
endfacet
facet normal 0.999531 0.00254458 0.0305166
outer loop
vertex 0.00795672 -0.014957 0.0761136
vertex 0.00789434 0.007827 0.0759704
vertex 0.00789864 0.00785468 0.0761136
endloop
endfacet
facet normal 0.999544 0.0025473 0.0300909
outer loop
vertex 0.00795672 -0.014957 0.0761136
vertex 0.00795237 -0.0149419 0.0759704
vertex 0.00789434 0.007827 0.0759704
endloop
endfacet
facet normal 0.999535 0.00254192 0.0303852
outer loop
vertex 0.00796105 -0.0149722 0.0762568
vertex 0.00789864 0.00785468 0.0761136
vertex 0.00790293 0.00788235 0.0762568
endloop
endfacet
facet normal 0.999548 0.00254463 0.029959
outer loop
vertex 0.00796105 -0.0149722 0.0762568
vertex 0.00795672 -0.014957 0.0761136
vertex 0.00789864 0.00785468 0.0761136
endloop
endfacet
facet normal 0.999539 0.00253925 0.0302545
outer loop
vertex 0.00796536 -0.0149873 0.0764
vertex 0.00790293 0.00788235 0.0762568
vertex 0.00790719 0.00791 0.0764
endloop
endfacet
facet normal 0.999552 0.00254196 0.0298278
outer loop
vertex 0.00796536 -0.0149873 0.0764
vertex 0.00796105 -0.0149722 0.0762568
vertex 0.00790293 0.00788235 0.0762568
endloop
endfacet
facet normal 0.999543 0.00253659 0.0301245
outer loop
vertex 0.00796965 -0.0150025 0.0765432
vertex 0.00790719 0.00791 0.0764
vertex 0.00791144 0.00793764 0.0765432
endloop
endfacet
facet normal 0.999556 0.0025393 0.0296973
outer loop
vertex 0.00796965 -0.0150025 0.0765432
vertex 0.00796536 -0.0149873 0.0764
vertex 0.00790719 0.00791 0.0764
endloop
endfacet
facet normal 0.999547 0.00253393 0.0299952
outer loop
vertex 0.00797393 -0.0150177 0.0766865
vertex 0.00791144 0.00793764 0.0765432
vertex 0.00791566 0.00796526 0.0766865
endloop
endfacet
facet normal 0.99956 0.00253663 0.0295674
outer loop
vertex 0.00797393 -0.0150177 0.0766865
vertex 0.00796965 -0.0150025 0.0765432
vertex 0.00791144 0.00793764 0.0765432
endloop
endfacet
facet normal 0.999551 0.00253127 0.0298665
outer loop
vertex 0.00797818 -0.0150329 0.0768297
vertex 0.00791566 0.00796526 0.0766865
vertex 0.00791987 0.00799287 0.0768297
endloop
endfacet
facet normal 0.999563 0.00253397 0.0294383
outer loop
vertex 0.00797818 -0.0150329 0.0768297
vertex 0.00797393 -0.0150177 0.0766865
vertex 0.00791566 0.00796526 0.0766865
endloop
endfacet
facet normal 0.999555 0.00252861 0.0297385
outer loop
vertex 0.00798242 -0.0150481 0.0769729
vertex 0.00791987 0.00799287 0.0768297
vertex 0.00792406 0.00802047 0.0769729
endloop
endfacet
facet normal 0.999567 0.00253131 0.0293098
outer loop
vertex 0.00798242 -0.0150481 0.0769729
vertex 0.00797818 -0.0150329 0.0768297
vertex 0.00791987 0.00799287 0.0768297
endloop
endfacet
facet normal 0.999558 0.00252596 0.0296111
outer loop
vertex 0.00798664 -0.0150633 0.0771161
vertex 0.00792406 0.00802047 0.0769729
vertex 0.00792824 0.00804805 0.0771161
endloop
endfacet
facet normal 0.999571 0.00252865 0.0291819
outer loop
vertex 0.00798664 -0.0150633 0.0771161
vertex 0.00798242 -0.0150481 0.0769729
vertex 0.00792406 0.00802047 0.0769729
endloop
endfacet
facet normal 0.999562 0.0025233 0.0294844
outer loop
vertex 0.00799084 -0.0150786 0.0772593
vertex 0.00792824 0.00804805 0.0771161
vertex 0.00793239 0.00807561 0.0772593
endloop
endfacet
facet normal 0.999575 0.002526 0.0290547
outer loop
vertex 0.00799084 -0.0150786 0.0772593
vertex 0.00798664 -0.0150633 0.0771161
vertex 0.00792824 0.00804805 0.0771161
endloop
endfacet
facet normal 0.999566 0.00252065 0.0293584
outer loop
vertex 0.00799502 -0.0150938 0.0774025
vertex 0.00793239 0.00807561 0.0772593
vertex 0.00793653 0.00810317 0.0774025
endloop
endfacet
facet normal 0.999578 0.00252335 0.0289282
outer loop
vertex 0.00799502 -0.0150938 0.0774025
vertex 0.00799084 -0.0150786 0.0772593
vertex 0.00793239 0.00807561 0.0772593
endloop
endfacet
facet normal 0.999569 0.002518 0.029233
outer loop
vertex 0.00799919 -0.0151091 0.0775457
vertex 0.00793653 0.00810317 0.0774025
vertex 0.00794065 0.0081307 0.0775457
endloop
endfacet
facet normal 0.999582 0.00252069 0.0288023
outer loop
vertex 0.00799919 -0.0151091 0.0775457
vertex 0.00799502 -0.0150938 0.0774025
vertex 0.00793653 0.00810317 0.0774025
endloop
endfacet
facet normal 0.999573 0.00251535 0.0291082
outer loop
vertex 0.00800334 -0.0151244 0.0776889
vertex 0.00794065 0.0081307 0.0775457
vertex 0.00794475 0.00815823 0.0776889
endloop
endfacet
facet normal 0.999586 0.00251804 0.0286771
outer loop
vertex 0.00800334 -0.0151244 0.0776889
vertex 0.00799919 -0.0151091 0.0775457
vertex 0.00794065 0.0081307 0.0775457
endloop
endfacet
facet normal 0.999577 0.00251271 0.0289841
outer loop
vertex 0.00800747 -0.0151397 0.0778321
vertex 0.00794475 0.00815823 0.0776889
vertex 0.00794883 0.00818574 0.0778321
endloop
endfacet
facet normal 0.999589 0.00251539 0.0285525
outer loop
vertex 0.00800747 -0.0151397 0.0778321
vertex 0.00800334 -0.0151244 0.0776889
vertex 0.00794475 0.00815823 0.0776889
endloop
endfacet
facet normal 0.99958 0.00251006 0.0288606
outer loop
vertex 0.00801158 -0.015155 0.0779753
vertex 0.00794883 0.00818574 0.0778321
vertex 0.0079529 0.00821323 0.0779753
endloop
endfacet
facet normal 0.999593 0.00251275 0.0284286
outer loop
vertex 0.00801158 -0.015155 0.0779753
vertex 0.00800747 -0.0151397 0.0778321
vertex 0.00794883 0.00818574 0.0778321
endloop
endfacet
facet normal 0.999584 0.00250742 0.0287378
outer loop
vertex 0.00801567 -0.0151703 0.0781185
vertex 0.0079529 0.00821323 0.0779753
vertex 0.00795695 0.00824072 0.0781185
endloop
endfacet
facet normal 0.999596 0.0025101 0.0283053
outer loop
vertex 0.00801567 -0.0151703 0.0781185
vertex 0.00801158 -0.015155 0.0779753
vertex 0.0079529 0.00821323 0.0779753
endloop
endfacet
facet normal 0.999587 0.00250478 0.0286156
outer loop
vertex 0.00801975 -0.0151856 0.0782618
vertex 0.00795695 0.00824072 0.0781185
vertex 0.00796098 0.00826818 0.0782618
endloop
endfacet
facet normal 0.9996 0.00250746 0.0281826
outer loop
vertex 0.00801975 -0.0151856 0.0782618
vertex 0.00801567 -0.0151703 0.0781185
vertex 0.00795695 0.00824072 0.0781185
endloop
endfacet
facet normal 0.999591 0.00250214 0.028494
outer loop
vertex 0.00802381 -0.015201 0.078405
vertex 0.00796098 0.00826818 0.0782618
vertex 0.00796499 0.00829564 0.078405
endloop
endfacet
facet normal 0.999603 0.00250482 0.0280606
outer loop
vertex 0.00802381 -0.015201 0.078405
vertex 0.00801975 -0.0151856 0.0782618
vertex 0.00796098 0.00826818 0.0782618
endloop
endfacet
facet normal 0.999594 0.00249951 0.0283731
outer loop
vertex 0.00802785 -0.0152164 0.0785482
vertex 0.00796499 0.00829564 0.078405
vertex 0.00796899 0.00832308 0.0785482
endloop
endfacet
facet normal 0.999606 0.00250218 0.0279392
outer loop
vertex 0.00802785 -0.0152164 0.0785482
vertex 0.00802381 -0.015201 0.078405
vertex 0.00796499 0.00829564 0.078405
endloop
endfacet
facet normal 0.999598 0.00249687 0.0282527
outer loop
vertex 0.00803187 -0.0152317 0.0786914
vertex 0.00796899 0.00832308 0.0785482
vertex 0.00797297 0.0083505 0.0786914
endloop
endfacet
facet normal 0.99961 0.00249955 0.0278184
outer loop
vertex 0.00803187 -0.0152317 0.0786914
vertex 0.00802785 -0.0152164 0.0785482
vertex 0.00796899 0.00832308 0.0785482
endloop
endfacet
facet normal 0.999601 0.00249424 0.028133
outer loop
vertex 0.00803588 -0.0152471 0.0788346
vertex 0.00797297 0.0083505 0.0786914
vertex 0.00797693 0.00837791 0.0788346
endloop
endfacet
facet normal 0.999613 0.00249691 0.0276983
outer loop
vertex 0.00803588 -0.0152471 0.0788346
vertex 0.00803187 -0.0152317 0.0786914
vertex 0.00797297 0.0083505 0.0786914
endloop
endfacet
facet normal 0.999604 0.00249161 0.0280139
outer loop
vertex 0.00803987 -0.0152625 0.0789778
vertex 0.00797693 0.00837791 0.0788346
vertex 0.00798087 0.00840531 0.0789778
endloop
endfacet
facet normal 0.999617 0.00249428 0.0275788
outer loop
vertex 0.00803987 -0.0152625 0.0789778
vertex 0.00803588 -0.0152471 0.0788346
vertex 0.00797693 0.00837791 0.0788346
endloop
endfacet
facet normal 0.999608 0.00248898 0.0278954
outer loop
vertex 0.00804384 -0.015278 0.079121
vertex 0.00798087 0.00840531 0.0789778
vertex 0.0079848 0.00843269 0.079121
endloop
endfacet
facet normal 0.99962 0.00249165 0.0274598
outer loop
vertex 0.00804384 -0.015278 0.079121
vertex 0.00803987 -0.0152625 0.0789778
vertex 0.00798087 0.00840531 0.0789778
endloop
endfacet
facet normal 0.999611 0.00248636 0.0277776
outer loop
vertex 0.0080478 -0.0152934 0.0792642
vertex 0.0079848 0.00843269 0.079121
vertex 0.00798871 0.00846006 0.0792642
endloop
endfacet
facet normal 0.999623 0.00248902 0.0273415
outer loop
vertex 0.0080478 -0.0152934 0.0792642
vertex 0.00804384 -0.015278 0.079121
vertex 0.0079848 0.00843269 0.079121
endloop
endfacet
facet normal 0.999614 0.00248374 0.0276603
outer loop
vertex 0.00805173 -0.0153088 0.0794074
vertex 0.00798871 0.00846006 0.0792642
vertex 0.00799261 0.00848742 0.0794074
endloop
endfacet
facet normal 0.999626 0.0024864 0.0272238
outer loop
vertex 0.00805173 -0.0153088 0.0794074
vertex 0.0080478 -0.0152934 0.0792642
vertex 0.00798871 0.00846006 0.0792642
endloop
endfacet
facet normal 0.999618 0.00248111 0.0275436
outer loop
vertex 0.00805566 -0.0153243 0.0795506
vertex 0.00799261 0.00848742 0.0794074
vertex 0.00799649 0.00851476 0.0795506
endloop
endfacet
facet normal 0.999629 0.00248377 0.0271067
outer loop
vertex 0.00805566 -0.0153243 0.0795506
vertex 0.00805173 -0.0153088 0.0794074
vertex 0.00799261 0.00848742 0.0794074
endloop
endfacet
facet normal 0.999621 0.00247849 0.0274275
outer loop
vertex 0.00805956 -0.0153398 0.0796939
vertex 0.00799649 0.00851476 0.0795506
vertex 0.00800035 0.00854209 0.0796939
endloop
endfacet
facet normal 0.999633 0.00248115 0.0269902
outer loop
vertex 0.00805956 -0.0153398 0.0796939
vertex 0.00805566 -0.0153243 0.0795506
vertex 0.00799649 0.00851476 0.0795506
endloop
endfacet
facet normal 0.999624 0.00247588 0.027312
outer loop
vertex 0.00806345 -0.0153553 0.0798371
vertex 0.00800035 0.00854209 0.0796939
vertex 0.00800419 0.00856941 0.0798371
endloop
endfacet
facet normal 0.999636 0.00247853 0.0268743
outer loop
vertex 0.00806345 -0.0153553 0.0798371
vertex 0.00805956 -0.0153398 0.0796939
vertex 0.00800035 0.00854209 0.0796939
endloop
endfacet
facet normal 0.999627 0.00247326 0.0271971
outer loop
vertex 0.00806732 -0.0153708 0.0799803
vertex 0.00800419 0.00856941 0.0798371
vertex 0.00800802 0.00859671 0.0799803
endloop
endfacet
facet normal 0.999639 0.00247591 0.026759
outer loop
vertex 0.00806732 -0.0153708 0.0799803
vertex 0.00806345 -0.0153553 0.0798371
vertex 0.00800419 0.00856941 0.0798371
endloop
endfacet
facet normal 0.99963 0.00247065 0.0270828
outer loop
vertex 0.00807118 -0.0153863 0.0801235
vertex 0.00800802 0.00859671 0.0799803
vertex 0.00801183 0.008624 0.0801235
endloop
endfacet
facet normal 0.999642 0.0024733 0.0266443
outer loop
vertex 0.00807118 -0.0153863 0.0801235
vertex 0.00806732 -0.0153708 0.0799803
vertex 0.00800802 0.00859671 0.0799803
endloop
endfacet
facet normal 0.999633 0.00246804 0.0269691
outer loop
vertex 0.00807502 -0.0154018 0.0802667
vertex 0.00801183 0.008624 0.0801235
vertex 0.00801563 0.00865127 0.0802667
endloop
endfacet
facet normal 0.999645 0.00247069 0.0265302
outer loop
vertex 0.00807502 -0.0154018 0.0802667
vertex 0.00807118 -0.0153863 0.0801235
vertex 0.00801183 0.008624 0.0801235
endloop
endfacet
facet normal 0.999636 0.00246543 0.026856
outer loop
vertex 0.00807884 -0.0154174 0.0804099
vertex 0.00801563 0.00865127 0.0802667
vertex 0.00801941 0.00867853 0.0804099
endloop
endfacet
facet normal 0.999648 0.00246807 0.0264166
outer loop
vertex 0.00807884 -0.0154174 0.0804099
vertex 0.00807502 -0.0154018 0.0802667
vertex 0.00801563 0.00865127 0.0802667
endloop
endfacet
facet normal 0.999639 0.00246282 0.0267434
outer loop
vertex 0.00808264 -0.0154329 0.0805531
vertex 0.00801941 0.00867853 0.0804099
vertex 0.00802317 0.00870578 0.0805531
endloop
endfacet
facet normal 0.999651 0.00246547 0.0263036
outer loop
vertex 0.00808264 -0.0154329 0.0805531
vertex 0.00807884 -0.0154174 0.0804099
vertex 0.00801941 0.00867853 0.0804099
endloop
endfacet
facet normal 0.999642 0.00246022 0.0266314
outer loop
vertex 0.00808644 -0.0154485 0.0806963
vertex 0.00802317 0.00870578 0.0805531
vertex 0.00802692 0.00873301 0.0806963
endloop
endfacet
facet normal 0.999654 0.00246286 0.0261912
outer loop
vertex 0.00808644 -0.0154485 0.0806963
vertex 0.00808264 -0.0154329 0.0805531
vertex 0.00802317 0.00870578 0.0805531
endloop
endfacet
facet normal 0.999645 0.00245762 0.02652
outer loop
vertex 0.00809021 -0.0154641 0.0808395
vertex 0.00802692 0.00873301 0.0806963
vertex 0.00803065 0.00876023 0.0808395
endloop
endfacet
facet normal 0.999657 0.00246026 0.0260794
outer loop
vertex 0.00809021 -0.0154641 0.0808395
vertex 0.00808644 -0.0154485 0.0806963
vertex 0.00802692 0.00873301 0.0806963
endloop
endfacet
facet normal 0.999648 0.00245502 0.0264091
outer loop
vertex 0.00809397 -0.0154797 0.0809827
vertex 0.00803065 0.00876023 0.0808395
vertex 0.00803437 0.00878744 0.0809827
endloop
endfacet
facet normal 0.99966 0.00245765 0.0259682
outer loop
vertex 0.00809397 -0.0154797 0.0809827
vertex 0.00809021 -0.0154641 0.0808395
vertex 0.00803065 0.00876023 0.0808395
endloop
endfacet
facet normal 0.999651 0.00245242 0.0262988
outer loop
vertex 0.00809771 -0.0154953 0.0811259
vertex 0.00803437 0.00878744 0.0809827
vertex 0.00803807 0.00881463 0.0811259
endloop
endfacet
facet normal 0.999663 0.00245505 0.0258575
outer loop
vertex 0.00809771 -0.0154953 0.0811259
vertex 0.00809397 -0.0154797 0.0809827
vertex 0.00803437 0.00878744 0.0809827
endloop
endfacet
facet normal 0.999654 0.00244983 0.0261891
outer loop
vertex 0.00810144 -0.0155109 0.0812692
vertex 0.00803807 0.00881463 0.0811259
vertex 0.00804176 0.00884181 0.0812692
endloop
endfacet
facet normal 0.999665 0.00245246 0.0257474
outer loop
vertex 0.00810144 -0.0155109 0.0812692
vertex 0.00809771 -0.0154953 0.0811259
vertex 0.00803807 0.00881463 0.0811259
endloop
endfacet
facet normal 0.999657 0.00244723 0.0260799
outer loop
vertex 0.00810515 -0.0155266 0.0814124
vertex 0.00804176 0.00884181 0.0812692
vertex 0.00804543 0.00886898 0.0814124
endloop
endfacet
facet normal 0.999668 0.00244986 0.0256378
outer loop
vertex 0.00810515 -0.0155266 0.0814124
vertex 0.00810144 -0.0155109 0.0812692
vertex 0.00804176 0.00884181 0.0812692
endloop
endfacet
facet normal 0.99966 0.00244464 0.0259713
outer loop
vertex 0.00810884 -0.0155422 0.0815556
vertex 0.00804543 0.00886898 0.0814124
vertex 0.00804908 0.00889613 0.0815556
endloop
endfacet
facet normal 0.999671 0.00244727 0.0255288
outer loop
vertex 0.00810884 -0.0155422 0.0815556
vertex 0.00810515 -0.0155266 0.0814124
vertex 0.00804543 0.00886898 0.0814124
endloop
endfacet
facet normal 0.999663 0.00244206 0.0258632
outer loop
vertex 0.00811252 -0.0155579 0.0816988
vertex 0.00804908 0.00889613 0.0815556
vertex 0.00805272 0.00892327 0.0816988
endloop
endfacet
facet normal 0.999674 0.00244468 0.0254204
outer loop
vertex 0.00811252 -0.0155579 0.0816988
vertex 0.00810884 -0.0155422 0.0815556
vertex 0.00804908 0.00889613 0.0815556
endloop
endfacet
facet normal 0.999665 0.00243947 0.0257557
outer loop
vertex 0.00811619 -0.0155736 0.081842
vertex 0.00805272 0.00892327 0.0816988
vertex 0.00805634 0.0089504 0.081842
endloop
endfacet
facet normal 0.999677 0.00244209 0.0253125
outer loop
vertex 0.00811619 -0.0155736 0.081842
vertex 0.00811252 -0.0155579 0.0816988
vertex 0.00805272 0.00892327 0.0816988
endloop
endfacet
facet normal 0.999668 0.00243689 0.0256487
outer loop
vertex 0.00811984 -0.0155893 0.0819852
vertex 0.00805634 0.0089504 0.081842
vertex 0.00805995 0.00897751 0.0819852
endloop
endfacet
facet normal 0.999679 0.0024395 0.0252052
outer loop
vertex 0.00811984 -0.0155893 0.0819852
vertex 0.00811619 -0.0155736 0.081842
vertex 0.00805634 0.0089504 0.081842
endloop
endfacet
facet normal 0.999671 0.00243431 0.0255423
outer loop
vertex 0.00812347 -0.015605 0.0821284
vertex 0.00805995 0.00897751 0.0819852
vertex 0.00806354 0.00900461 0.0821284
endloop
endfacet
facet normal 0.999682 0.00243692 0.0250984
outer loop
vertex 0.00812347 -0.015605 0.0821284
vertex 0.00811984 -0.0155893 0.0819852
vertex 0.00805995 0.00897751 0.0819852
endloop
endfacet
facet normal 0.999673 0.00243173 0.0254364
outer loop
vertex 0.00812709 -0.0156207 0.0822716
vertex 0.00806354 0.00900461 0.0821284
vertex 0.00806712 0.0090317 0.0822716
endloop
endfacet
facet normal 0.999685 0.00243434 0.0249921
outer loop
vertex 0.00812709 -0.0156207 0.0822716
vertex 0.00812347 -0.015605 0.0821284
vertex 0.00806354 0.00900461 0.0821284
endloop
endfacet
facet normal 0.999676 0.00242915 0.025331
outer loop
vertex 0.00813069 -0.0156364 0.0824148
vertex 0.00806712 0.0090317 0.0822716
vertex 0.00807069 0.00905877 0.0824148
endloop
endfacet
facet normal 0.999687 0.00243176 0.0248864
outer loop
vertex 0.00813069 -0.0156364 0.0824148
vertex 0.00812709 -0.0156207 0.0822716
vertex 0.00806712 0.0090317 0.0822716
endloop
endfacet
facet normal 0.999679 0.00242658 0.0252262
outer loop
vertex 0.00813428 -0.0156522 0.082558
vertex 0.00807069 0.00905877 0.0824148
vertex 0.00807423 0.00908583 0.082558
endloop
endfacet
facet normal 0.99969 0.00242918 0.0247812
outer loop
vertex 0.00813428 -0.0156522 0.082558
vertex 0.00813069 -0.0156364 0.0824148
vertex 0.00807069 0.00905877 0.0824148
endloop
endfacet
facet normal 0.999681 0.00242401 0.0251219
outer loop
vertex 0.00813786 -0.0156679 0.0827012
vertex 0.00807423 0.00908583 0.082558
vertex 0.00807777 0.00911288 0.0827012
endloop
endfacet
facet normal 0.999693 0.00242661 0.0246766
outer loop
vertex 0.00813786 -0.0156679 0.0827012
vertex 0.00813428 -0.0156522 0.082558
vertex 0.00807423 0.00908583 0.082558
endloop
endfacet
facet normal 0.999684 0.00242144 0.0250181
outer loop
vertex 0.00814141 -0.0156837 0.0828445
vertex 0.00807777 0.00911288 0.0827012
vertex 0.00808129 0.00913992 0.0828445
endloop
endfacet
facet normal 0.999695 0.00242404 0.0245725
outer loop
vertex 0.00814141 -0.0156837 0.0828445
vertex 0.00813786 -0.0156679 0.0827012
vertex 0.00807777 0.00911288 0.0827012
endloop
endfacet
facet normal 0.999687 0.00241887 0.0249148
outer loop
vertex 0.00814496 -0.0156995 0.0829877
vertex 0.00808129 0.00913992 0.0828445
vertex 0.00808479 0.00916694 0.0829877
endloop
endfacet
facet normal 0.999698 0.00242147 0.0244689
outer loop
vertex 0.00814496 -0.0156995 0.0829877
vertex 0.00814141 -0.0156837 0.0828445
vertex 0.00808129 0.00913992 0.0828445
endloop
endfacet
facet normal 0.999689 0.00241631 0.0248121
outer loop
vertex 0.00814849 -0.0157153 0.0831309
vertex 0.00808479 0.00916694 0.0829877
vertex 0.00808828 0.00919395 0.0831309
endloop
endfacet
facet normal 0.9997 0.0024189 0.0243658
outer loop
vertex 0.00814849 -0.0157153 0.0831309
vertex 0.00814496 -0.0156995 0.0829877
vertex 0.00808479 0.00916694 0.0829877
endloop
endfacet
facet normal 0.999692 0.00241374 0.0247099
outer loop
vertex 0.008152 -0.0157311 0.0832741
vertex 0.00808828 0.00919395 0.0831309
vertex 0.00809175 0.00922094 0.0832741
endloop
endfacet
facet normal 0.999703 0.00241634 0.0242633
outer loop
vertex 0.008152 -0.0157311 0.0832741
vertex 0.00814849 -0.0157153 0.0831309
vertex 0.00808828 0.00919395 0.0831309
endloop
endfacet
facet normal 0.999694 0.00241119 0.0246082
outer loop
vertex 0.0081555 -0.0157469 0.0834173
vertex 0.00809175 0.00922094 0.0832741
vertex 0.00809521 0.00924793 0.0834173
endloop
endfacet
facet normal 0.999705 0.00241378 0.0241613
outer loop
vertex 0.0081555 -0.0157469 0.0834173
vertex 0.008152 -0.0157311 0.0832741
vertex 0.00809175 0.00922094 0.0832741
endloop
endfacet
facet normal 0.999697 0.00240863 0.024507
outer loop
vertex 0.00815898 -0.0157628 0.0835605
vertex 0.00809521 0.00924793 0.0834173
vertex 0.00809866 0.0092749 0.0835605
endloop
endfacet
facet normal 0.999708 0.00241122 0.0240597
outer loop
vertex 0.00815898 -0.0157628 0.0835605
vertex 0.0081555 -0.0157469 0.0834173
vertex 0.00809521 0.00924793 0.0834173
endloop
endfacet
facet normal 0.999699 0.00240607 0.0244064
outer loop
vertex 0.00816245 -0.0157786 0.0837037
vertex 0.00809866 0.0092749 0.0835605
vertex 0.00810209 0.00930185 0.0837037
endloop
endfacet
facet normal 0.99971 0.00240866 0.0239587
outer loop
vertex 0.00816245 -0.0157786 0.0837037
vertex 0.00815898 -0.0157628 0.0835605
vertex 0.00809866 0.0092749 0.0835605
endloop
endfacet
facet normal 0.999702 0.00240352 0.0243062
outer loop
vertex 0.00816591 -0.0157945 0.0838469
vertex 0.00810209 0.00930185 0.0837037
vertex 0.00810551 0.0093288 0.0838469
endloop
endfacet
facet normal 0.999712 0.00240611 0.0238583
outer loop
vertex 0.00816591 -0.0157945 0.0838469
vertex 0.00816245 -0.0157786 0.0837037
vertex 0.00810209 0.00930185 0.0837037
endloop
endfacet
facet normal 0.999704 0.00240097 0.0242065
outer loop
vertex 0.00816935 -0.0158104 0.0839901
vertex 0.00810551 0.0093288 0.0838469
vertex 0.00810891 0.00935573 0.0839901
endloop
endfacet
facet normal 0.999715 0.00240355 0.0237583
outer loop
vertex 0.00816935 -0.0158104 0.0839901
vertex 0.00816591 -0.0157945 0.0838469
vertex 0.00810551 0.0093288 0.0838469
endloop
endfacet
facet normal 0.999706 0.00239843 0.0241074
outer loop
vertex 0.00817278 -0.0158263 0.0841333
vertex 0.00810891 0.00935573 0.0839901
vertex 0.0081123 0.00938265 0.0841333
endloop
endfacet
facet normal 0.999717 0.00240101 0.0236588
outer loop
vertex 0.00817278 -0.0158263 0.0841333
vertex 0.00816935 -0.0158104 0.0839901
vertex 0.00810891 0.00935573 0.0839901
endloop
endfacet
facet normal 0.999709 0.00239588 0.0240087
outer loop
vertex 0.00817619 -0.0158422 0.0842766
vertex 0.0081123 0.00938265 0.0841333
vertex 0.00811567 0.00940956 0.0842766
endloop
endfacet
facet normal 0.99972 0.00239846 0.0235598
outer loop
vertex 0.00817619 -0.0158422 0.0842766
vertex 0.00817278 -0.0158263 0.0841333
vertex 0.0081123 0.00938265 0.0841333
endloop
endfacet
facet normal 0.999711 0.00239334 0.0239105
outer loop
vertex 0.00817959 -0.0158581 0.0844198
vertex 0.00811567 0.00940956 0.0842766
vertex 0.00811903 0.00943645 0.0844198
endloop
endfacet
facet normal 0.999722 0.00239591 0.0234614
outer loop
vertex 0.00817959 -0.0158581 0.0844198
vertex 0.00817619 -0.0158422 0.0842766
vertex 0.00811567 0.00940956 0.0842766
endloop
endfacet
facet normal 0.999714 0.0023908 0.0238128
outer loop
vertex 0.00818298 -0.015874 0.084563
vertex 0.00811903 0.00943645 0.0844198
vertex 0.00812238 0.00946333 0.084563
endloop
endfacet
facet normal 0.999724 0.00239337 0.0233634
outer loop
vertex 0.00818298 -0.015874 0.084563
vertex 0.00817959 -0.0158581 0.0844198
vertex 0.00811903 0.00943645 0.0844198
endloop
endfacet
facet normal 0.999716 0.00238827 0.0237157
outer loop
vertex 0.00818635 -0.0158899 0.0847062
vertex 0.00812238 0.00946333 0.084563
vertex 0.00812571 0.0094902 0.0847062
endloop
endfacet
facet normal 0.999726 0.00239083 0.0232659
outer loop
vertex 0.00818635 -0.0158899 0.0847062
vertex 0.00818298 -0.015874 0.084563
vertex 0.00812238 0.00946333 0.084563
endloop
endfacet
facet normal 0.999718 0.00238573 0.023619
outer loop
vertex 0.0081897 -0.0159059 0.0848494
vertex 0.00812571 0.0094902 0.0847062
vertex 0.00812903 0.00951706 0.0848494
endloop
endfacet
facet normal 0.999729 0.0023883 0.0231689
outer loop
vertex 0.0081897 -0.0159059 0.0848494
vertex 0.00818635 -0.0158899 0.0847062
vertex 0.00812571 0.0094902 0.0847062
endloop
endfacet
facet normal 0.99972 0.0023832 0.0235227
outer loop
vertex 0.00819305 -0.0159218 0.0849926
vertex 0.00812903 0.00951706 0.0848494
vertex 0.00813234 0.0095439 0.0849926
endloop
endfacet
facet normal 0.999731 0.00238576 0.0230724
outer loop
vertex 0.00819305 -0.0159218 0.0849926
vertex 0.0081897 -0.0159059 0.0848494
vertex 0.00812903 0.00951706 0.0848494
endloop
endfacet
facet normal 0.999723 0.00238067 0.023427
outer loop
vertex 0.00819638 -0.0159378 0.0851358
vertex 0.00813234 0.0095439 0.0849926
vertex 0.00813563 0.00957073 0.0851358
endloop
endfacet
facet normal 0.999733 0.00238323 0.0229763
outer loop
vertex 0.00819638 -0.0159378 0.0851358
vertex 0.00819305 -0.0159218 0.0849926
vertex 0.00813234 0.0095439 0.0849926
endloop
endfacet
facet normal 0.999725 0.00237815 0.0233317
outer loop
vertex 0.00819969 -0.0159538 0.085279
vertex 0.00813563 0.00957073 0.0851358
vertex 0.00813891 0.00959755 0.085279
endloop
endfacet
facet normal 0.999735 0.0023807 0.0228808
outer loop
vertex 0.00819969 -0.0159538 0.085279
vertex 0.00819638 -0.0159378 0.0851358
vertex 0.00813563 0.00957073 0.0851358
endloop
endfacet
facet normal 0.999727 0.00237562 0.023237
outer loop
vertex 0.00820299 -0.0159698 0.0854222
vertex 0.00813891 0.00959755 0.085279
vertex 0.00814218 0.00962436 0.0854222
endloop
endfacet
facet normal 0.999738 0.00237818 0.0227857
outer loop
vertex 0.00820299 -0.0159698 0.0854222
vertex 0.00819969 -0.0159538 0.085279
vertex 0.00813891 0.00959755 0.085279
endloop
endfacet
facet normal 0.999729 0.0023731 0.0231426
outer loop
vertex 0.00820628 -0.0159858 0.0855654
vertex 0.00814218 0.00962436 0.0854222
vertex 0.00814543 0.00965115 0.0855654
endloop
endfacet
facet normal 0.99974 0.00237565 0.0226911
outer loop
vertex 0.00820628 -0.0159858 0.0855654
vertex 0.00820299 -0.0159698 0.0854222
vertex 0.00814218 0.00962436 0.0854222
endloop
endfacet
facet normal 0.999732 0.00237058 0.0230488
outer loop
vertex 0.00820956 -0.0160019 0.0857086
vertex 0.00814543 0.00965115 0.0855654
vertex 0.00814867 0.00967794 0.0857086
endloop
endfacet
facet normal 0.999742 0.00237313 0.022597
outer loop
vertex 0.00820956 -0.0160019 0.0857086
vertex 0.00820628 -0.0159858 0.0855654
vertex 0.00814543 0.00965115 0.0855654
endloop
endfacet
facet normal 0.999734 0.00236807 0.0229554
outer loop
vertex 0.00821282 -0.0160179 0.0858519
vertex 0.00814867 0.00967794 0.0857086
vertex 0.00815189 0.00970471 0.0858519
endloop
endfacet
facet normal 0.999744 0.00237061 0.0225034
outer loop
vertex 0.00821282 -0.0160179 0.0858519
vertex 0.00820956 -0.0160019 0.0857086
vertex 0.00814867 0.00967794 0.0857086
endloop
endfacet
facet normal 0.999736 0.00236555 0.0228625
outer loop
vertex 0.00821607 -0.0160339 0.0859951
vertex 0.00815189 0.00970471 0.0858519
vertex 0.0081551 0.00973146 0.0859951
endloop
endfacet
facet normal 0.999746 0.0023681 0.0224102
outer loop
vertex 0.00821607 -0.0160339 0.0859951
vertex 0.00821282 -0.0160179 0.0858519
vertex 0.00815189 0.00970471 0.0858519
endloop
endfacet
facet normal 0.999738 0.00236304 0.0227701
outer loop
vertex 0.0082193 -0.01605 0.0861383
vertex 0.0081551 0.00973146 0.0859951
vertex 0.0081583 0.00975821 0.0861383
endloop
endfacet
facet normal 0.999748 0.00236558 0.0223175
outer loop
vertex 0.0082193 -0.01605 0.0861383
vertex 0.00821607 -0.0160339 0.0859951
vertex 0.0081551 0.00973146 0.0859951
endloop
endfacet
facet normal 0.99974 0.00236054 0.0226781
outer loop
vertex 0.00822252 -0.0160661 0.0862815
vertex 0.0081583 0.00975821 0.0861383
vertex 0.00816149 0.00978494 0.0862815
endloop
endfacet
facet normal 0.99975 0.00236307 0.0222252
outer loop
vertex 0.00822252 -0.0160661 0.0862815
vertex 0.0082193 -0.01605 0.0861383
vertex 0.0081583 0.00975821 0.0861383
endloop
endfacet
facet normal 0.999742 0.00235803 0.0225866
outer loop
vertex 0.00822573 -0.0160822 0.0864247
vertex 0.00816149 0.00978494 0.0862815
vertex 0.00816466 0.00981166 0.0864247
endloop
endfacet
facet normal 0.999752 0.00236057 0.0221334
outer loop
vertex 0.00822573 -0.0160822 0.0864247
vertex 0.00822252 -0.0160661 0.0862815
vertex 0.00816149 0.00978494 0.0862815
endloop
endfacet
facet normal 0.999744 0.00235553 0.0224955
outer loop
vertex 0.00822893 -0.0160983 0.0865679
vertex 0.00816466 0.00981166 0.0864247
vertex 0.00816782 0.00983837 0.0865679
endloop
endfacet
facet normal 0.999754 0.00235806 0.0220421
outer loop
vertex 0.00822893 -0.0160983 0.0865679
vertex 0.00822573 -0.0160822 0.0864247
vertex 0.00816466 0.00981166 0.0864247
endloop
endfacet
facet normal 0.999746 0.00235303 0.0224049
outer loop
vertex 0.00823211 -0.0161144 0.0867111
vertex 0.00816782 0.00983837 0.0865679
vertex 0.00817096 0.00986507 0.0867111
endloop
endfacet
facet normal 0.999756 0.00235556 0.0219512
outer loop
vertex 0.00823211 -0.0161144 0.0867111
vertex 0.00822893 -0.0160983 0.0865679
vertex 0.00816782 0.00983837 0.0865679
endloop
endfacet
facet normal 0.999748 0.00235053 0.0223147
outer loop
vertex 0.00823528 -0.0161305 0.0868543
vertex 0.00817096 0.00986507 0.0867111
vertex 0.0081741 0.00989175 0.0868543
endloop
endfacet
facet normal 0.999758 0.00235306 0.0218608
outer loop
vertex 0.00823528 -0.0161305 0.0868543
vertex 0.00823211 -0.0161144 0.0867111
vertex 0.00817096 0.00986507 0.0867111
endloop
endfacet
facet normal 0.99975 0.00234804 0.022225
outer loop
vertex 0.00823844 -0.0161466 0.0869975
vertex 0.0081741 0.00989175 0.0868543
vertex 0.00817722 0.00991842 0.0869975
endloop
endfacet
facet normal 0.99976 0.00235056 0.0217708
outer loop
vertex 0.00823844 -0.0161466 0.0869975
vertex 0.00823528 -0.0161305 0.0868543
vertex 0.0081741 0.00989175 0.0868543
endloop
endfacet
facet normal 0.999752 0.00234555 0.0221357
outer loop
vertex 0.00824158 -0.0161628 0.0871407
vertex 0.00817722 0.00991842 0.0869975
vertex 0.00818033 0.00994508 0.0871407
endloop
endfacet
facet normal 0.999762 0.00234807 0.0216813
outer loop
vertex 0.00824158 -0.0161628 0.0871407
vertex 0.00823844 -0.0161466 0.0869975
vertex 0.00817722 0.00991842 0.0869975
endloop
endfacet
facet normal 0.999754 0.00234306 0.0220469
outer loop
vertex 0.00824471 -0.0161789 0.087284
vertex 0.00818033 0.00994508 0.0871407
vertex 0.00818342 0.00997173 0.087284
endloop
endfacet
facet normal 0.999764 0.00234558 0.0215922
outer loop
vertex 0.00824471 -0.0161789 0.087284
vertex 0.00824158 -0.0161628 0.0871407
vertex 0.00818033 0.00994508 0.0871407
endloop
endfacet
facet normal 0.999756 0.00234057 0.0219585
outer loop
vertex 0.00824783 -0.0161951 0.0874272
vertex 0.00818342 0.00997173 0.087284
vertex 0.00818651 0.00999837 0.0874272
endloop
endfacet
facet normal 0.999766 0.00234309 0.0215036
outer loop
vertex 0.00824783 -0.0161951 0.0874272
vertex 0.00824471 -0.0161789 0.087284
vertex 0.00818342 0.00997173 0.087284
endloop
endfacet
facet normal 0.999758 0.00233809 0.0218705
outer loop
vertex 0.00825093 -0.0162113 0.0875704
vertex 0.00818651 0.00999837 0.0874272
vertex 0.00818958 0.010025 0.0875704
endloop
endfacet
facet normal 0.999768 0.0023406 0.0214154
outer loop
vertex 0.00825093 -0.0162113 0.0875704
vertex 0.00824783 -0.0161951 0.0874272
vertex 0.00818651 0.00999837 0.0874272
endloop
endfacet
facet normal 0.99976 0.00233561 0.021783
outer loop
vertex 0.00825403 -0.0162275 0.0877136
vertex 0.00818958 0.010025 0.0875704
vertex 0.00819263 0.0100516 0.0877136
endloop
endfacet
facet normal 0.99977 0.00233812 0.0213276
outer loop
vertex 0.00825403 -0.0162275 0.0877136
vertex 0.00825093 -0.0162113 0.0875704
vertex 0.00818958 0.010025 0.0875704
endloop
endfacet
facet normal 0.999762 0.00233313 0.0216959
outer loop
vertex 0.00825711 -0.0162437 0.0878568
vertex 0.00819263 0.0100516 0.0877136
vertex 0.00819568 0.0100782 0.0878568
endloop
endfacet
facet normal 0.999772 0.00233564 0.0212403
outer loop
vertex 0.00825711 -0.0162437 0.0878568
vertex 0.00825403 -0.0162275 0.0877136
vertex 0.00819263 0.0100516 0.0877136
endloop
endfacet
facet normal 0.999764 0.00233065 0.0216092
outer loop
vertex 0.00826018 -0.0162599 0.088
vertex 0.00819568 0.0100782 0.0878568
vertex 0.00819871 0.0101048 0.088
endloop
endfacet
facet normal 0.999774 0.00233316 0.0211534
outer loop
vertex 0.00826018 -0.0162599 0.088
vertex 0.00825711 -0.0162437 0.0878568
vertex 0.00819568 0.0100782 0.0878568
endloop
endfacet
